%TF.GenerationSoftware,KiCad,Pcbnew,8.0.1+1*%
%TF.CreationDate,2024-05-08T14:56:33-06:00*%
%TF.ProjectId,encoder-to-i2c-tssop20.kicad_pro,656e636f-6465-4722-9d74-6f2d6932632d,rev?*%
%TF.SameCoordinates,Original*%
%TF.FileFunction,Soldermask,Top*%
%TF.FilePolarity,Negative*%
%FSLAX46Y46*%
G04 Gerber Fmt 4.6, Leading zero omitted, Abs format (unit mm)*
G04 Created by KiCad (PCBNEW 8.0.1+1) date 2024-05-08 14:56:33*
%MOMM*%
%LPD*%
G01*
G04 APERTURE LIST*
G04 Aperture macros list*
%AMRoundRect*
0 Rectangle with rounded corners*
0 $1 Rounding radius*
0 $2 $3 $4 $5 $6 $7 $8 $9 X,Y pos of 4 corners*
0 Add a 4 corners polygon primitive as box body*
4,1,4,$2,$3,$4,$5,$6,$7,$8,$9,$2,$3,0*
0 Add four circle primitives for the rounded corners*
1,1,$1+$1,$2,$3*
1,1,$1+$1,$4,$5*
1,1,$1+$1,$6,$7*
1,1,$1+$1,$8,$9*
0 Add four rect primitives between the rounded corners*
20,1,$1+$1,$2,$3,$4,$5,0*
20,1,$1+$1,$4,$5,$6,$7,0*
20,1,$1+$1,$6,$7,$8,$9,0*
20,1,$1+$1,$8,$9,$2,$3,0*%
G04 Aperture macros list end*
%ADD10RoundRect,0.237500X-0.250000X-0.237500X0.250000X-0.237500X0.250000X0.237500X-0.250000X0.237500X0*%
%ADD11RoundRect,0.237500X0.237500X-0.250000X0.237500X0.250000X-0.237500X0.250000X-0.237500X-0.250000X0*%
%ADD12RoundRect,0.237500X-0.237500X0.300000X-0.237500X-0.300000X0.237500X-0.300000X0.237500X0.300000X0*%
%ADD13RoundRect,0.237500X0.250000X0.237500X-0.250000X0.237500X-0.250000X-0.237500X0.250000X-0.237500X0*%
%ADD14RoundRect,0.237500X-0.237500X0.250000X-0.237500X-0.250000X0.237500X-0.250000X0.237500X0.250000X0*%
%ADD15RoundRect,0.237500X-0.300000X-0.237500X0.300000X-0.237500X0.300000X0.237500X-0.300000X0.237500X0*%
%ADD16RoundRect,0.250000X-0.600000X-0.725000X0.600000X-0.725000X0.600000X0.725000X-0.600000X0.725000X0*%
%ADD17O,1.700000X1.950000*%
%ADD18RoundRect,0.100000X0.637500X0.100000X-0.637500X0.100000X-0.637500X-0.100000X0.637500X-0.100000X0*%
%ADD19RoundRect,0.237500X0.237500X-0.300000X0.237500X0.300000X-0.237500X0.300000X-0.237500X-0.300000X0*%
%ADD20R,1.800000X1.800000*%
%ADD21C,1.800000*%
%ADD22RoundRect,0.250000X0.550000X0.550000X-0.550000X0.550000X-0.550000X-0.550000X0.550000X-0.550000X0*%
%ADD23C,1.600000*%
%ADD24O,4.100000X3.000000*%
G04 APERTURE END LIST*
D10*
%TO.C,R5*%
X55447500Y-45870000D03*
X57272500Y-45870000D03*
%TD*%
D11*
%TO.C,R1*%
X37714500Y-59887000D03*
X37714500Y-58062000D03*
%TD*%
D12*
%TO.C,C2*%
X37714500Y-52474000D03*
X37714500Y-54199000D03*
%TD*%
D11*
%TO.C,R3*%
X57272500Y-60903000D03*
X57272500Y-59078000D03*
%TD*%
D13*
%TO.C,R8*%
X52446500Y-56284000D03*
X50621500Y-56284000D03*
%TD*%
D14*
%TO.C,R2*%
X57272500Y-62888000D03*
X57272500Y-64713000D03*
%TD*%
D10*
%TO.C,R4*%
X55447500Y-55522000D03*
X57272500Y-55522000D03*
%TD*%
D15*
%TO.C,C5*%
X41301500Y-61468000D03*
X43026500Y-61468000D03*
%TD*%
D10*
%TO.C,R7*%
X40715500Y-56284000D03*
X42540500Y-56284000D03*
%TD*%
D12*
%TO.C,C1*%
X51938500Y-47140000D03*
X51938500Y-48865000D03*
%TD*%
D16*
%TO.C,J1*%
X41811500Y-65174000D03*
D17*
X44311500Y-65174000D03*
X46811500Y-65174000D03*
X49311500Y-65174000D03*
X51811500Y-65174000D03*
%TD*%
D18*
%TO.C,U2*%
X49721000Y-53875000D03*
X49721000Y-53225000D03*
X49721000Y-52575000D03*
X49721000Y-51925000D03*
X49721000Y-51275000D03*
X49721000Y-50625000D03*
X49721000Y-49975000D03*
X49721000Y-49325000D03*
X49721000Y-48675000D03*
X49721000Y-48025000D03*
X43996000Y-48025000D03*
X43996000Y-48675000D03*
X43996000Y-49325000D03*
X43996000Y-49975000D03*
X43996000Y-50625000D03*
X43996000Y-51275000D03*
X43996000Y-51925000D03*
X43996000Y-52575000D03*
X43996000Y-53225000D03*
X43996000Y-53875000D03*
%TD*%
D19*
%TO.C,C3*%
X57272500Y-53490000D03*
X57272500Y-51765000D03*
%TD*%
D12*
%TO.C,C4*%
X57272500Y-47902000D03*
X57272500Y-49627000D03*
%TD*%
D14*
%TO.C,R6*%
X37714500Y-48109000D03*
X37714500Y-49934000D03*
%TD*%
D20*
%TO.C,D2*%
X55123000Y-39370000D03*
D21*
X52583000Y-39370000D03*
%TD*%
D20*
%TO.C,D1*%
X60198000Y-39370000D03*
D21*
X57658000Y-39370000D03*
%TD*%
D22*
%TO.C,SW1*%
X54240000Y-48300000D03*
D23*
X54240000Y-53300000D03*
X54240000Y-50800000D03*
X39740000Y-48300000D03*
X39740000Y-53300000D03*
D24*
X46740000Y-56400000D03*
X46740000Y-45200000D03*
%TD*%
D20*
%TO.C,D10*%
X34798000Y-57658000D03*
D21*
X32258000Y-57658000D03*
%TD*%
D20*
%TO.C,D4*%
X44958000Y-39370000D03*
D21*
X42418000Y-39370000D03*
%TD*%
D20*
%TO.C,D9*%
X34798000Y-53086000D03*
D21*
X32258000Y-53086000D03*
%TD*%
D20*
%TO.C,D3*%
X50038000Y-39370000D03*
D21*
X47498000Y-39370000D03*
%TD*%
D20*
%TO.C,D5*%
X39878000Y-39370000D03*
D21*
X37338000Y-39370000D03*
%TD*%
D20*
%TO.C,D8*%
X34798000Y-48514000D03*
D21*
X32258000Y-48514000D03*
%TD*%
D20*
%TO.C,D7*%
X34798000Y-43942000D03*
D21*
X32258000Y-43942000D03*
%TD*%
D20*
%TO.C,D11*%
X34798000Y-62230000D03*
D21*
X32258000Y-62230000D03*
%TD*%
D20*
%TO.C,D6*%
X34798000Y-39370000D03*
D21*
X32258000Y-39370000D03*
%TD*%
D20*
%TO.C,D12*%
X34786100Y-66814000D03*
D21*
X32246100Y-66814000D03*
%TD*%
M02*
