%TF.GenerationSoftware,KiCad,Pcbnew,8.0.1+1*%
%TF.CreationDate,2024-05-08T14:56:33-06:00*%
%TF.ProjectId,encoder-to-i2c-tssop20.kicad_pro,656e636f-6465-4722-9d74-6f2d6932632d,rev?*%
%TF.SameCoordinates,Original*%
%TF.FileFunction,Soldermask,Bot*%
%TF.FilePolarity,Negative*%
%FSLAX46Y46*%
G04 Gerber Fmt 4.6, Leading zero omitted, Abs format (unit mm)*
G04 Created by KiCad (PCBNEW 8.0.1+1) date 2024-05-08 14:56:33*
%MOMM*%
%LPD*%
G01*
G04 APERTURE LIST*
G04 Aperture macros list*
%AMRoundRect*
0 Rectangle with rounded corners*
0 $1 Rounding radius*
0 $2 $3 $4 $5 $6 $7 $8 $9 X,Y pos of 4 corners*
0 Add a 4 corners polygon primitive as box body*
4,1,4,$2,$3,$4,$5,$6,$7,$8,$9,$2,$3,0*
0 Add four circle primitives for the rounded corners*
1,1,$1+$1,$2,$3*
1,1,$1+$1,$4,$5*
1,1,$1+$1,$6,$7*
1,1,$1+$1,$8,$9*
0 Add four rect primitives between the rounded corners*
20,1,$1+$1,$2,$3,$4,$5,0*
20,1,$1+$1,$4,$5,$6,$7,0*
20,1,$1+$1,$6,$7,$8,$9,0*
20,1,$1+$1,$8,$9,$2,$3,0*%
G04 Aperture macros list end*
%ADD10RoundRect,0.250000X-0.600000X-0.725000X0.600000X-0.725000X0.600000X0.725000X-0.600000X0.725000X0*%
%ADD11O,1.700000X1.950000*%
%ADD12RoundRect,0.237500X0.250000X0.237500X-0.250000X0.237500X-0.250000X-0.237500X0.250000X-0.237500X0*%
%ADD13R,1.800000X1.800000*%
%ADD14C,1.800000*%
%ADD15RoundRect,0.237500X-0.237500X0.250000X-0.237500X-0.250000X0.237500X-0.250000X0.237500X0.250000X0*%
%ADD16RoundRect,0.250000X0.550000X0.550000X-0.550000X0.550000X-0.550000X-0.550000X0.550000X-0.550000X0*%
%ADD17C,1.600000*%
%ADD18O,4.100000X3.000000*%
G04 APERTURE END LIST*
D10*
%TO.C,J1*%
X41811500Y-65174000D03*
D11*
X44311500Y-65174000D03*
X46811500Y-65174000D03*
X49311500Y-65174000D03*
X51811500Y-65174000D03*
%TD*%
D12*
%TO.C,R11*%
X50038000Y-42672000D03*
X48213000Y-42672000D03*
%TD*%
%TO.C,R12*%
X44704000Y-42672000D03*
X42879000Y-42672000D03*
%TD*%
D13*
%TO.C,D2*%
X55123000Y-39370000D03*
D14*
X52583000Y-39370000D03*
%TD*%
D12*
%TO.C,R10*%
X55118000Y-42672000D03*
X53293000Y-42672000D03*
%TD*%
%TO.C,R9*%
X60198000Y-42672000D03*
X58373000Y-42672000D03*
%TD*%
D15*
%TO.C,R16*%
X30124900Y-47601500D03*
X30124900Y-49426500D03*
%TD*%
%TO.C,R17*%
X30237900Y-52173500D03*
X30237900Y-53998500D03*
%TD*%
%TO.C,R18*%
X30237900Y-56745500D03*
X30237900Y-58570500D03*
%TD*%
D13*
%TO.C,D1*%
X60198000Y-39370000D03*
D14*
X57658000Y-39370000D03*
%TD*%
D16*
%TO.C,SW1*%
X54240000Y-48300000D03*
D17*
X54240000Y-53300000D03*
X54240000Y-50800000D03*
X39740000Y-48300000D03*
X39740000Y-53300000D03*
D18*
X46740000Y-56400000D03*
X46740000Y-45200000D03*
%TD*%
D13*
%TO.C,D10*%
X34798000Y-57658000D03*
D14*
X32258000Y-57658000D03*
%TD*%
D13*
%TO.C,D4*%
X44958000Y-39370000D03*
D14*
X42418000Y-39370000D03*
%TD*%
D15*
%TO.C,R14*%
X30237900Y-38457500D03*
X30237900Y-40282500D03*
%TD*%
%TO.C,R15*%
X30237900Y-43029500D03*
X30237900Y-44854500D03*
%TD*%
D13*
%TO.C,D9*%
X34798000Y-53086000D03*
D14*
X32258000Y-53086000D03*
%TD*%
D15*
%TO.C,R19*%
X30237900Y-61317500D03*
X30237900Y-63142500D03*
%TD*%
D12*
%TO.C,R13*%
X39624000Y-42418000D03*
X37799000Y-42418000D03*
%TD*%
D13*
%TO.C,D3*%
X50038000Y-39370000D03*
D14*
X47498000Y-39370000D03*
%TD*%
D13*
%TO.C,D5*%
X39878000Y-39370000D03*
D14*
X37338000Y-39370000D03*
%TD*%
D13*
%TO.C,D8*%
X34798000Y-48514000D03*
D14*
X32258000Y-48514000D03*
%TD*%
D13*
%TO.C,D7*%
X34798000Y-43942000D03*
D14*
X32258000Y-43942000D03*
%TD*%
D13*
%TO.C,D11*%
X34798000Y-62230000D03*
D14*
X32258000Y-62230000D03*
%TD*%
D13*
%TO.C,D6*%
X34798000Y-39370000D03*
D14*
X32258000Y-39370000D03*
%TD*%
D15*
%TO.C,R20*%
X30226000Y-65901500D03*
X30226000Y-67726500D03*
%TD*%
D13*
%TO.C,D12*%
X34786100Y-66814000D03*
D14*
X32246100Y-66814000D03*
%TD*%
M02*
