%TF.GenerationSoftware,KiCad,Pcbnew,8.0.1+1*%
%TF.CreationDate,2024-05-08T14:56:33-06:00*%
%TF.ProjectId,encoder-to-i2c-tssop20.kicad_pro,656e636f-6465-4722-9d74-6f2d6932632d,rev?*%
%TF.SameCoordinates,Original*%
%TF.FileFunction,Paste,Top*%
%TF.FilePolarity,Positive*%
%FSLAX46Y46*%
G04 Gerber Fmt 4.6, Leading zero omitted, Abs format (unit mm)*
G04 Created by KiCad (PCBNEW 8.0.1+1) date 2024-05-08 14:56:33*
%MOMM*%
%LPD*%
G01*
G04 APERTURE LIST*
G04 Aperture macros list*
%AMRoundRect*
0 Rectangle with rounded corners*
0 $1 Rounding radius*
0 $2 $3 $4 $5 $6 $7 $8 $9 X,Y pos of 4 corners*
0 Add a 4 corners polygon primitive as box body*
4,1,4,$2,$3,$4,$5,$6,$7,$8,$9,$2,$3,0*
0 Add four circle primitives for the rounded corners*
1,1,$1+$1,$2,$3*
1,1,$1+$1,$4,$5*
1,1,$1+$1,$6,$7*
1,1,$1+$1,$8,$9*
0 Add four rect primitives between the rounded corners*
20,1,$1+$1,$2,$3,$4,$5,0*
20,1,$1+$1,$4,$5,$6,$7,0*
20,1,$1+$1,$6,$7,$8,$9,0*
20,1,$1+$1,$8,$9,$2,$3,0*%
G04 Aperture macros list end*
%ADD10RoundRect,0.237500X-0.250000X-0.237500X0.250000X-0.237500X0.250000X0.237500X-0.250000X0.237500X0*%
%ADD11RoundRect,0.237500X0.237500X-0.250000X0.237500X0.250000X-0.237500X0.250000X-0.237500X-0.250000X0*%
%ADD12RoundRect,0.237500X-0.237500X0.300000X-0.237500X-0.300000X0.237500X-0.300000X0.237500X0.300000X0*%
%ADD13RoundRect,0.237500X0.250000X0.237500X-0.250000X0.237500X-0.250000X-0.237500X0.250000X-0.237500X0*%
%ADD14RoundRect,0.237500X-0.237500X0.250000X-0.237500X-0.250000X0.237500X-0.250000X0.237500X0.250000X0*%
%ADD15RoundRect,0.237500X-0.300000X-0.237500X0.300000X-0.237500X0.300000X0.237500X-0.300000X0.237500X0*%
%ADD16RoundRect,0.100000X0.637500X0.100000X-0.637500X0.100000X-0.637500X-0.100000X0.637500X-0.100000X0*%
%ADD17RoundRect,0.237500X0.237500X-0.300000X0.237500X0.300000X-0.237500X0.300000X-0.237500X-0.300000X0*%
G04 APERTURE END LIST*
D10*
%TO.C,R5*%
X55447500Y-45870000D03*
X57272500Y-45870000D03*
%TD*%
D11*
%TO.C,R1*%
X37714500Y-59887000D03*
X37714500Y-58062000D03*
%TD*%
D12*
%TO.C,C2*%
X37714500Y-52474000D03*
X37714500Y-54199000D03*
%TD*%
D11*
%TO.C,R3*%
X57272500Y-60903000D03*
X57272500Y-59078000D03*
%TD*%
D13*
%TO.C,R8*%
X52446500Y-56284000D03*
X50621500Y-56284000D03*
%TD*%
D14*
%TO.C,R2*%
X57272500Y-62888000D03*
X57272500Y-64713000D03*
%TD*%
D10*
%TO.C,R4*%
X55447500Y-55522000D03*
X57272500Y-55522000D03*
%TD*%
D15*
%TO.C,C5*%
X41301500Y-61468000D03*
X43026500Y-61468000D03*
%TD*%
D10*
%TO.C,R7*%
X40715500Y-56284000D03*
X42540500Y-56284000D03*
%TD*%
D12*
%TO.C,C1*%
X51938500Y-47140000D03*
X51938500Y-48865000D03*
%TD*%
D16*
%TO.C,U2*%
X49721000Y-53875000D03*
X49721000Y-53225000D03*
X49721000Y-52575000D03*
X49721000Y-51925000D03*
X49721000Y-51275000D03*
X49721000Y-50625000D03*
X49721000Y-49975000D03*
X49721000Y-49325000D03*
X49721000Y-48675000D03*
X49721000Y-48025000D03*
X43996000Y-48025000D03*
X43996000Y-48675000D03*
X43996000Y-49325000D03*
X43996000Y-49975000D03*
X43996000Y-50625000D03*
X43996000Y-51275000D03*
X43996000Y-51925000D03*
X43996000Y-52575000D03*
X43996000Y-53225000D03*
X43996000Y-53875000D03*
%TD*%
D17*
%TO.C,C3*%
X57272500Y-53490000D03*
X57272500Y-51765000D03*
%TD*%
D12*
%TO.C,C4*%
X57272500Y-47902000D03*
X57272500Y-49627000D03*
%TD*%
D14*
%TO.C,R6*%
X37714500Y-48109000D03*
X37714500Y-49934000D03*
%TD*%
M02*
