M48
; DRILL file {KiCad 8.0.1+1} date 2024-05-08T14:56:33-0600
; FORMAT={-:-/ absolute / inch / decimal}
; #@! TF.CreationDate,2024-05-08T14:56:33-06:00
; #@! TF.GenerationSoftware,Kicad,Pcbnew,8.0.1+1
; #@! TF.FileFunction,Plated,1,2,PTH
FMAT,2
INCH
; #@! TA.AperFunction,Plated,PTH,ViaDrill
T1C0.0118
; #@! TA.AperFunction,Plated,PTH,ViaDrill
T2C0.0236
; #@! TA.AperFunction,Plated,PTH,ComponentDrill
T3C0.0354
; #@! TA.AperFunction,Plated,PTH,ComponentDrill
T4C0.0374
; #@! TA.AperFunction,Plated,PTH,ComponentDrill
T5C0.0394
; #@! TA.AperFunction,Plated,PTH,ComponentDrill
T6C0.0787
%
G90
G05
T1
X1.6273Y-1.8513
X1.6675Y-2.0015
X1.67Y-2.1741
X1.6833Y-2.1393
X1.7831Y-2.0128
X1.7833Y-1.9793
X1.7839Y-1.9457
X1.8603Y-2.0505
X1.9052Y-2.1135
X1.9067Y-1.9707
X2.0042Y-1.8662
X2.009Y-2.1124
X2.0627Y-1.8057
X2.0687Y-2.0593
X2.3042Y-2.517
T2
X2.3032Y-1.91
T3
X1.2695Y-2.6305
X1.27Y-1.55
X1.27Y-1.73
X1.27Y-1.91
X1.27Y-2.09
X1.27Y-2.27
X1.27Y-2.45
X1.3695Y-2.6305
X1.37Y-1.55
X1.37Y-1.73
X1.37Y-1.91
X1.37Y-2.09
X1.37Y-2.27
X1.37Y-2.45
X1.47Y-1.55
X1.57Y-1.55
X1.67Y-1.55
X1.77Y-1.55
X1.87Y-1.55
X1.97Y-1.55
X2.0702Y-1.55
X2.1702Y-1.55
X2.27Y-1.55
X2.37Y-1.55
T4
X1.6461Y-2.5659
X1.7445Y-2.5659
X1.843Y-2.5659
X1.9414Y-2.5659
X2.0398Y-2.5659
T5
X1.5646Y-1.9016
X1.5646Y-2.0984
X2.1354Y-1.9016
X2.1354Y-2.0
X2.1354Y-2.0984
T6
G00X1.8618Y-1.7795
M15
G01X1.8185Y-1.7795
M16
G05
G00X1.8618Y-2.2205
M15
G01X1.8185Y-2.2205
M16
G05
M30
