%TF.GenerationSoftware,KiCad,Pcbnew,8.0.1+1*%
%TF.CreationDate,2024-05-08T14:56:33-06:00*%
%TF.ProjectId,encoder-to-i2c-tssop20.kicad_pro,656e636f-6465-4722-9d74-6f2d6932632d,rev?*%
%TF.SameCoordinates,Original*%
%TF.FileFunction,Legend,Bot*%
%TF.FilePolarity,Positive*%
%FSLAX46Y46*%
G04 Gerber Fmt 4.6, Leading zero omitted, Abs format (unit mm)*
G04 Created by KiCad (PCBNEW 8.0.1+1) date 2024-05-08 14:56:33*
%MOMM*%
%LPD*%
G01*
G04 APERTURE LIST*
G04 Aperture macros list*
%AMRoundRect*
0 Rectangle with rounded corners*
0 $1 Rounding radius*
0 $2 $3 $4 $5 $6 $7 $8 $9 X,Y pos of 4 corners*
0 Add a 4 corners polygon primitive as box body*
4,1,4,$2,$3,$4,$5,$6,$7,$8,$9,$2,$3,0*
0 Add four circle primitives for the rounded corners*
1,1,$1+$1,$2,$3*
1,1,$1+$1,$4,$5*
1,1,$1+$1,$6,$7*
1,1,$1+$1,$8,$9*
0 Add four rect primitives between the rounded corners*
20,1,$1+$1,$2,$3,$4,$5,0*
20,1,$1+$1,$4,$5,$6,$7,0*
20,1,$1+$1,$6,$7,$8,$9,0*
20,1,$1+$1,$8,$9,$2,$3,0*%
G04 Aperture macros list end*
%ADD10C,0.150000*%
%ADD11C,0.120000*%
%ADD12RoundRect,0.250000X-0.600000X-0.725000X0.600000X-0.725000X0.600000X0.725000X-0.600000X0.725000X0*%
%ADD13O,1.700000X1.950000*%
%ADD14RoundRect,0.237500X0.250000X0.237500X-0.250000X0.237500X-0.250000X-0.237500X0.250000X-0.237500X0*%
%ADD15R,1.800000X1.800000*%
%ADD16C,1.800000*%
%ADD17RoundRect,0.237500X-0.237500X0.250000X-0.237500X-0.250000X0.237500X-0.250000X0.237500X0.250000X0*%
%ADD18RoundRect,0.250000X0.550000X0.550000X-0.550000X0.550000X-0.550000X-0.550000X0.550000X-0.550000X0*%
%ADD19C,1.600000*%
%ADD20O,4.100000X3.000000*%
G04 APERTURE END LIST*
D10*
X50426857Y-44650819D02*
X50760190Y-44174628D01*
X50998285Y-44650819D02*
X50998285Y-43650819D01*
X50998285Y-43650819D02*
X50617333Y-43650819D01*
X50617333Y-43650819D02*
X50522095Y-43698438D01*
X50522095Y-43698438D02*
X50474476Y-43746057D01*
X50474476Y-43746057D02*
X50426857Y-43841295D01*
X50426857Y-43841295D02*
X50426857Y-43984152D01*
X50426857Y-43984152D02*
X50474476Y-44079390D01*
X50474476Y-44079390D02*
X50522095Y-44127009D01*
X50522095Y-44127009D02*
X50617333Y-44174628D01*
X50617333Y-44174628D02*
X50998285Y-44174628D01*
X49474476Y-44650819D02*
X50045904Y-44650819D01*
X49760190Y-44650819D02*
X49760190Y-43650819D01*
X49760190Y-43650819D02*
X49855428Y-43793676D01*
X49855428Y-43793676D02*
X49950666Y-43888914D01*
X49950666Y-43888914D02*
X50045904Y-43936533D01*
X48522095Y-44650819D02*
X49093523Y-44650819D01*
X48807809Y-44650819D02*
X48807809Y-43650819D01*
X48807809Y-43650819D02*
X48903047Y-43793676D01*
X48903047Y-43793676D02*
X48998285Y-43888914D01*
X48998285Y-43888914D02*
X49093523Y-43936533D01*
X44076857Y-44650819D02*
X44410190Y-44174628D01*
X44648285Y-44650819D02*
X44648285Y-43650819D01*
X44648285Y-43650819D02*
X44267333Y-43650819D01*
X44267333Y-43650819D02*
X44172095Y-43698438D01*
X44172095Y-43698438D02*
X44124476Y-43746057D01*
X44124476Y-43746057D02*
X44076857Y-43841295D01*
X44076857Y-43841295D02*
X44076857Y-43984152D01*
X44076857Y-43984152D02*
X44124476Y-44079390D01*
X44124476Y-44079390D02*
X44172095Y-44127009D01*
X44172095Y-44127009D02*
X44267333Y-44174628D01*
X44267333Y-44174628D02*
X44648285Y-44174628D01*
X43124476Y-44650819D02*
X43695904Y-44650819D01*
X43410190Y-44650819D02*
X43410190Y-43650819D01*
X43410190Y-43650819D02*
X43505428Y-43793676D01*
X43505428Y-43793676D02*
X43600666Y-43888914D01*
X43600666Y-43888914D02*
X43695904Y-43936533D01*
X42743523Y-43746057D02*
X42695904Y-43698438D01*
X42695904Y-43698438D02*
X42600666Y-43650819D01*
X42600666Y-43650819D02*
X42362571Y-43650819D01*
X42362571Y-43650819D02*
X42267333Y-43698438D01*
X42267333Y-43698438D02*
X42219714Y-43746057D01*
X42219714Y-43746057D02*
X42172095Y-43841295D01*
X42172095Y-43841295D02*
X42172095Y-43936533D01*
X42172095Y-43936533D02*
X42219714Y-44079390D01*
X42219714Y-44079390D02*
X42791142Y-44650819D01*
X42791142Y-44650819D02*
X42172095Y-44650819D01*
X55094094Y-41602819D02*
X55094094Y-40602819D01*
X55094094Y-40602819D02*
X54855999Y-40602819D01*
X54855999Y-40602819D02*
X54713142Y-40650438D01*
X54713142Y-40650438D02*
X54617904Y-40745676D01*
X54617904Y-40745676D02*
X54570285Y-40840914D01*
X54570285Y-40840914D02*
X54522666Y-41031390D01*
X54522666Y-41031390D02*
X54522666Y-41174247D01*
X54522666Y-41174247D02*
X54570285Y-41364723D01*
X54570285Y-41364723D02*
X54617904Y-41459961D01*
X54617904Y-41459961D02*
X54713142Y-41555200D01*
X54713142Y-41555200D02*
X54855999Y-41602819D01*
X54855999Y-41602819D02*
X55094094Y-41602819D01*
X54141713Y-40698057D02*
X54094094Y-40650438D01*
X54094094Y-40650438D02*
X53998856Y-40602819D01*
X53998856Y-40602819D02*
X53760761Y-40602819D01*
X53760761Y-40602819D02*
X53665523Y-40650438D01*
X53665523Y-40650438D02*
X53617904Y-40698057D01*
X53617904Y-40698057D02*
X53570285Y-40793295D01*
X53570285Y-40793295D02*
X53570285Y-40888533D01*
X53570285Y-40888533D02*
X53617904Y-41031390D01*
X53617904Y-41031390D02*
X54189332Y-41602819D01*
X54189332Y-41602819D02*
X53570285Y-41602819D01*
X55506857Y-44650819D02*
X55840190Y-44174628D01*
X56078285Y-44650819D02*
X56078285Y-43650819D01*
X56078285Y-43650819D02*
X55697333Y-43650819D01*
X55697333Y-43650819D02*
X55602095Y-43698438D01*
X55602095Y-43698438D02*
X55554476Y-43746057D01*
X55554476Y-43746057D02*
X55506857Y-43841295D01*
X55506857Y-43841295D02*
X55506857Y-43984152D01*
X55506857Y-43984152D02*
X55554476Y-44079390D01*
X55554476Y-44079390D02*
X55602095Y-44127009D01*
X55602095Y-44127009D02*
X55697333Y-44174628D01*
X55697333Y-44174628D02*
X56078285Y-44174628D01*
X54554476Y-44650819D02*
X55125904Y-44650819D01*
X54840190Y-44650819D02*
X54840190Y-43650819D01*
X54840190Y-43650819D02*
X54935428Y-43793676D01*
X54935428Y-43793676D02*
X55030666Y-43888914D01*
X55030666Y-43888914D02*
X55125904Y-43936533D01*
X53935428Y-43650819D02*
X53840190Y-43650819D01*
X53840190Y-43650819D02*
X53744952Y-43698438D01*
X53744952Y-43698438D02*
X53697333Y-43746057D01*
X53697333Y-43746057D02*
X53649714Y-43841295D01*
X53649714Y-43841295D02*
X53602095Y-44031771D01*
X53602095Y-44031771D02*
X53602095Y-44269866D01*
X53602095Y-44269866D02*
X53649714Y-44460342D01*
X53649714Y-44460342D02*
X53697333Y-44555580D01*
X53697333Y-44555580D02*
X53744952Y-44603200D01*
X53744952Y-44603200D02*
X53840190Y-44650819D01*
X53840190Y-44650819D02*
X53935428Y-44650819D01*
X53935428Y-44650819D02*
X54030666Y-44603200D01*
X54030666Y-44603200D02*
X54078285Y-44555580D01*
X54078285Y-44555580D02*
X54125904Y-44460342D01*
X54125904Y-44460342D02*
X54173523Y-44269866D01*
X54173523Y-44269866D02*
X54173523Y-44031771D01*
X54173523Y-44031771D02*
X54125904Y-43841295D01*
X54125904Y-43841295D02*
X54078285Y-43746057D01*
X54078285Y-43746057D02*
X54030666Y-43698438D01*
X54030666Y-43698438D02*
X53935428Y-43650819D01*
X60364666Y-44650819D02*
X60697999Y-44174628D01*
X60936094Y-44650819D02*
X60936094Y-43650819D01*
X60936094Y-43650819D02*
X60555142Y-43650819D01*
X60555142Y-43650819D02*
X60459904Y-43698438D01*
X60459904Y-43698438D02*
X60412285Y-43746057D01*
X60412285Y-43746057D02*
X60364666Y-43841295D01*
X60364666Y-43841295D02*
X60364666Y-43984152D01*
X60364666Y-43984152D02*
X60412285Y-44079390D01*
X60412285Y-44079390D02*
X60459904Y-44127009D01*
X60459904Y-44127009D02*
X60555142Y-44174628D01*
X60555142Y-44174628D02*
X60936094Y-44174628D01*
X59888475Y-44650819D02*
X59697999Y-44650819D01*
X59697999Y-44650819D02*
X59602761Y-44603200D01*
X59602761Y-44603200D02*
X59555142Y-44555580D01*
X59555142Y-44555580D02*
X59459904Y-44412723D01*
X59459904Y-44412723D02*
X59412285Y-44222247D01*
X59412285Y-44222247D02*
X59412285Y-43841295D01*
X59412285Y-43841295D02*
X59459904Y-43746057D01*
X59459904Y-43746057D02*
X59507523Y-43698438D01*
X59507523Y-43698438D02*
X59602761Y-43650819D01*
X59602761Y-43650819D02*
X59793237Y-43650819D01*
X59793237Y-43650819D02*
X59888475Y-43698438D01*
X59888475Y-43698438D02*
X59936094Y-43746057D01*
X59936094Y-43746057D02*
X59983713Y-43841295D01*
X59983713Y-43841295D02*
X59983713Y-44079390D01*
X59983713Y-44079390D02*
X59936094Y-44174628D01*
X59936094Y-44174628D02*
X59888475Y-44222247D01*
X59888475Y-44222247D02*
X59793237Y-44269866D01*
X59793237Y-44269866D02*
X59602761Y-44269866D01*
X59602761Y-44269866D02*
X59507523Y-44222247D01*
X59507523Y-44222247D02*
X59459904Y-44174628D01*
X59459904Y-44174628D02*
X59412285Y-44079390D01*
X29149719Y-47871142D02*
X28673528Y-47537809D01*
X29149719Y-47299714D02*
X28149719Y-47299714D01*
X28149719Y-47299714D02*
X28149719Y-47680666D01*
X28149719Y-47680666D02*
X28197338Y-47775904D01*
X28197338Y-47775904D02*
X28244957Y-47823523D01*
X28244957Y-47823523D02*
X28340195Y-47871142D01*
X28340195Y-47871142D02*
X28483052Y-47871142D01*
X28483052Y-47871142D02*
X28578290Y-47823523D01*
X28578290Y-47823523D02*
X28625909Y-47775904D01*
X28625909Y-47775904D02*
X28673528Y-47680666D01*
X28673528Y-47680666D02*
X28673528Y-47299714D01*
X29149719Y-48823523D02*
X29149719Y-48252095D01*
X29149719Y-48537809D02*
X28149719Y-48537809D01*
X28149719Y-48537809D02*
X28292576Y-48442571D01*
X28292576Y-48442571D02*
X28387814Y-48347333D01*
X28387814Y-48347333D02*
X28435433Y-48252095D01*
X28149719Y-49680666D02*
X28149719Y-49490190D01*
X28149719Y-49490190D02*
X28197338Y-49394952D01*
X28197338Y-49394952D02*
X28244957Y-49347333D01*
X28244957Y-49347333D02*
X28387814Y-49252095D01*
X28387814Y-49252095D02*
X28578290Y-49204476D01*
X28578290Y-49204476D02*
X28959242Y-49204476D01*
X28959242Y-49204476D02*
X29054480Y-49252095D01*
X29054480Y-49252095D02*
X29102100Y-49299714D01*
X29102100Y-49299714D02*
X29149719Y-49394952D01*
X29149719Y-49394952D02*
X29149719Y-49585428D01*
X29149719Y-49585428D02*
X29102100Y-49680666D01*
X29102100Y-49680666D02*
X29054480Y-49728285D01*
X29054480Y-49728285D02*
X28959242Y-49775904D01*
X28959242Y-49775904D02*
X28721147Y-49775904D01*
X28721147Y-49775904D02*
X28625909Y-49728285D01*
X28625909Y-49728285D02*
X28578290Y-49680666D01*
X28578290Y-49680666D02*
X28530671Y-49585428D01*
X28530671Y-49585428D02*
X28530671Y-49394952D01*
X28530671Y-49394952D02*
X28578290Y-49299714D01*
X28578290Y-49299714D02*
X28625909Y-49252095D01*
X28625909Y-49252095D02*
X28721147Y-49204476D01*
X29156819Y-52443142D02*
X28680628Y-52109809D01*
X29156819Y-51871714D02*
X28156819Y-51871714D01*
X28156819Y-51871714D02*
X28156819Y-52252666D01*
X28156819Y-52252666D02*
X28204438Y-52347904D01*
X28204438Y-52347904D02*
X28252057Y-52395523D01*
X28252057Y-52395523D02*
X28347295Y-52443142D01*
X28347295Y-52443142D02*
X28490152Y-52443142D01*
X28490152Y-52443142D02*
X28585390Y-52395523D01*
X28585390Y-52395523D02*
X28633009Y-52347904D01*
X28633009Y-52347904D02*
X28680628Y-52252666D01*
X28680628Y-52252666D02*
X28680628Y-51871714D01*
X29156819Y-53395523D02*
X29156819Y-52824095D01*
X29156819Y-53109809D02*
X28156819Y-53109809D01*
X28156819Y-53109809D02*
X28299676Y-53014571D01*
X28299676Y-53014571D02*
X28394914Y-52919333D01*
X28394914Y-52919333D02*
X28442533Y-52824095D01*
X28156819Y-53728857D02*
X28156819Y-54395523D01*
X28156819Y-54395523D02*
X29156819Y-53966952D01*
X29156819Y-57015142D02*
X28680628Y-56681809D01*
X29156819Y-56443714D02*
X28156819Y-56443714D01*
X28156819Y-56443714D02*
X28156819Y-56824666D01*
X28156819Y-56824666D02*
X28204438Y-56919904D01*
X28204438Y-56919904D02*
X28252057Y-56967523D01*
X28252057Y-56967523D02*
X28347295Y-57015142D01*
X28347295Y-57015142D02*
X28490152Y-57015142D01*
X28490152Y-57015142D02*
X28585390Y-56967523D01*
X28585390Y-56967523D02*
X28633009Y-56919904D01*
X28633009Y-56919904D02*
X28680628Y-56824666D01*
X28680628Y-56824666D02*
X28680628Y-56443714D01*
X29156819Y-57967523D02*
X29156819Y-57396095D01*
X29156819Y-57681809D02*
X28156819Y-57681809D01*
X28156819Y-57681809D02*
X28299676Y-57586571D01*
X28299676Y-57586571D02*
X28394914Y-57491333D01*
X28394914Y-57491333D02*
X28442533Y-57396095D01*
X28585390Y-58538952D02*
X28537771Y-58443714D01*
X28537771Y-58443714D02*
X28490152Y-58396095D01*
X28490152Y-58396095D02*
X28394914Y-58348476D01*
X28394914Y-58348476D02*
X28347295Y-58348476D01*
X28347295Y-58348476D02*
X28252057Y-58396095D01*
X28252057Y-58396095D02*
X28204438Y-58443714D01*
X28204438Y-58443714D02*
X28156819Y-58538952D01*
X28156819Y-58538952D02*
X28156819Y-58729428D01*
X28156819Y-58729428D02*
X28204438Y-58824666D01*
X28204438Y-58824666D02*
X28252057Y-58872285D01*
X28252057Y-58872285D02*
X28347295Y-58919904D01*
X28347295Y-58919904D02*
X28394914Y-58919904D01*
X28394914Y-58919904D02*
X28490152Y-58872285D01*
X28490152Y-58872285D02*
X28537771Y-58824666D01*
X28537771Y-58824666D02*
X28585390Y-58729428D01*
X28585390Y-58729428D02*
X28585390Y-58538952D01*
X28585390Y-58538952D02*
X28633009Y-58443714D01*
X28633009Y-58443714D02*
X28680628Y-58396095D01*
X28680628Y-58396095D02*
X28775866Y-58348476D01*
X28775866Y-58348476D02*
X28966342Y-58348476D01*
X28966342Y-58348476D02*
X29061580Y-58396095D01*
X29061580Y-58396095D02*
X29109200Y-58443714D01*
X29109200Y-58443714D02*
X29156819Y-58538952D01*
X29156819Y-58538952D02*
X29156819Y-58729428D01*
X29156819Y-58729428D02*
X29109200Y-58824666D01*
X29109200Y-58824666D02*
X29061580Y-58872285D01*
X29061580Y-58872285D02*
X28966342Y-58919904D01*
X28966342Y-58919904D02*
X28775866Y-58919904D01*
X28775866Y-58919904D02*
X28680628Y-58872285D01*
X28680628Y-58872285D02*
X28633009Y-58824666D01*
X28633009Y-58824666D02*
X28585390Y-58729428D01*
X60174094Y-41602819D02*
X60174094Y-40602819D01*
X60174094Y-40602819D02*
X59935999Y-40602819D01*
X59935999Y-40602819D02*
X59793142Y-40650438D01*
X59793142Y-40650438D02*
X59697904Y-40745676D01*
X59697904Y-40745676D02*
X59650285Y-40840914D01*
X59650285Y-40840914D02*
X59602666Y-41031390D01*
X59602666Y-41031390D02*
X59602666Y-41174247D01*
X59602666Y-41174247D02*
X59650285Y-41364723D01*
X59650285Y-41364723D02*
X59697904Y-41459961D01*
X59697904Y-41459961D02*
X59793142Y-41555200D01*
X59793142Y-41555200D02*
X59935999Y-41602819D01*
X59935999Y-41602819D02*
X60174094Y-41602819D01*
X58650285Y-41602819D02*
X59221713Y-41602819D01*
X58935999Y-41602819D02*
X58935999Y-40602819D01*
X58935999Y-40602819D02*
X59031237Y-40745676D01*
X59031237Y-40745676D02*
X59126475Y-40840914D01*
X59126475Y-40840914D02*
X59221713Y-40888533D01*
X43243332Y-46635200D02*
X43100475Y-46682819D01*
X43100475Y-46682819D02*
X42862380Y-46682819D01*
X42862380Y-46682819D02*
X42767142Y-46635200D01*
X42767142Y-46635200D02*
X42719523Y-46587580D01*
X42719523Y-46587580D02*
X42671904Y-46492342D01*
X42671904Y-46492342D02*
X42671904Y-46397104D01*
X42671904Y-46397104D02*
X42719523Y-46301866D01*
X42719523Y-46301866D02*
X42767142Y-46254247D01*
X42767142Y-46254247D02*
X42862380Y-46206628D01*
X42862380Y-46206628D02*
X43052856Y-46159009D01*
X43052856Y-46159009D02*
X43148094Y-46111390D01*
X43148094Y-46111390D02*
X43195713Y-46063771D01*
X43195713Y-46063771D02*
X43243332Y-45968533D01*
X43243332Y-45968533D02*
X43243332Y-45873295D01*
X43243332Y-45873295D02*
X43195713Y-45778057D01*
X43195713Y-45778057D02*
X43148094Y-45730438D01*
X43148094Y-45730438D02*
X43052856Y-45682819D01*
X43052856Y-45682819D02*
X42814761Y-45682819D01*
X42814761Y-45682819D02*
X42671904Y-45730438D01*
X42338570Y-45682819D02*
X42100475Y-46682819D01*
X42100475Y-46682819D02*
X41909999Y-45968533D01*
X41909999Y-45968533D02*
X41719523Y-46682819D01*
X41719523Y-46682819D02*
X41481428Y-45682819D01*
X40576666Y-46682819D02*
X41148094Y-46682819D01*
X40862380Y-46682819D02*
X40862380Y-45682819D01*
X40862380Y-45682819D02*
X40957618Y-45825676D01*
X40957618Y-45825676D02*
X41052856Y-45920914D01*
X41052856Y-45920914D02*
X41148094Y-45968533D01*
X34742285Y-59890819D02*
X34742285Y-58890819D01*
X34742285Y-58890819D02*
X34504190Y-58890819D01*
X34504190Y-58890819D02*
X34361333Y-58938438D01*
X34361333Y-58938438D02*
X34266095Y-59033676D01*
X34266095Y-59033676D02*
X34218476Y-59128914D01*
X34218476Y-59128914D02*
X34170857Y-59319390D01*
X34170857Y-59319390D02*
X34170857Y-59462247D01*
X34170857Y-59462247D02*
X34218476Y-59652723D01*
X34218476Y-59652723D02*
X34266095Y-59747961D01*
X34266095Y-59747961D02*
X34361333Y-59843200D01*
X34361333Y-59843200D02*
X34504190Y-59890819D01*
X34504190Y-59890819D02*
X34742285Y-59890819D01*
X33218476Y-59890819D02*
X33789904Y-59890819D01*
X33504190Y-59890819D02*
X33504190Y-58890819D01*
X33504190Y-58890819D02*
X33599428Y-59033676D01*
X33599428Y-59033676D02*
X33694666Y-59128914D01*
X33694666Y-59128914D02*
X33789904Y-59176533D01*
X32599428Y-58890819D02*
X32504190Y-58890819D01*
X32504190Y-58890819D02*
X32408952Y-58938438D01*
X32408952Y-58938438D02*
X32361333Y-58986057D01*
X32361333Y-58986057D02*
X32313714Y-59081295D01*
X32313714Y-59081295D02*
X32266095Y-59271771D01*
X32266095Y-59271771D02*
X32266095Y-59509866D01*
X32266095Y-59509866D02*
X32313714Y-59700342D01*
X32313714Y-59700342D02*
X32361333Y-59795580D01*
X32361333Y-59795580D02*
X32408952Y-59843200D01*
X32408952Y-59843200D02*
X32504190Y-59890819D01*
X32504190Y-59890819D02*
X32599428Y-59890819D01*
X32599428Y-59890819D02*
X32694666Y-59843200D01*
X32694666Y-59843200D02*
X32742285Y-59795580D01*
X32742285Y-59795580D02*
X32789904Y-59700342D01*
X32789904Y-59700342D02*
X32837523Y-59509866D01*
X32837523Y-59509866D02*
X32837523Y-59271771D01*
X32837523Y-59271771D02*
X32789904Y-59081295D01*
X32789904Y-59081295D02*
X32742285Y-58986057D01*
X32742285Y-58986057D02*
X32694666Y-58938438D01*
X32694666Y-58938438D02*
X32599428Y-58890819D01*
X44934094Y-41602819D02*
X44934094Y-40602819D01*
X44934094Y-40602819D02*
X44695999Y-40602819D01*
X44695999Y-40602819D02*
X44553142Y-40650438D01*
X44553142Y-40650438D02*
X44457904Y-40745676D01*
X44457904Y-40745676D02*
X44410285Y-40840914D01*
X44410285Y-40840914D02*
X44362666Y-41031390D01*
X44362666Y-41031390D02*
X44362666Y-41174247D01*
X44362666Y-41174247D02*
X44410285Y-41364723D01*
X44410285Y-41364723D02*
X44457904Y-41459961D01*
X44457904Y-41459961D02*
X44553142Y-41555200D01*
X44553142Y-41555200D02*
X44695999Y-41602819D01*
X44695999Y-41602819D02*
X44934094Y-41602819D01*
X43505523Y-40936152D02*
X43505523Y-41602819D01*
X43743618Y-40555200D02*
X43981713Y-41269485D01*
X43981713Y-41269485D02*
X43362666Y-41269485D01*
X29262719Y-38727142D02*
X28786528Y-38393809D01*
X29262719Y-38155714D02*
X28262719Y-38155714D01*
X28262719Y-38155714D02*
X28262719Y-38536666D01*
X28262719Y-38536666D02*
X28310338Y-38631904D01*
X28310338Y-38631904D02*
X28357957Y-38679523D01*
X28357957Y-38679523D02*
X28453195Y-38727142D01*
X28453195Y-38727142D02*
X28596052Y-38727142D01*
X28596052Y-38727142D02*
X28691290Y-38679523D01*
X28691290Y-38679523D02*
X28738909Y-38631904D01*
X28738909Y-38631904D02*
X28786528Y-38536666D01*
X28786528Y-38536666D02*
X28786528Y-38155714D01*
X29262719Y-39679523D02*
X29262719Y-39108095D01*
X29262719Y-39393809D02*
X28262719Y-39393809D01*
X28262719Y-39393809D02*
X28405576Y-39298571D01*
X28405576Y-39298571D02*
X28500814Y-39203333D01*
X28500814Y-39203333D02*
X28548433Y-39108095D01*
X28596052Y-40536666D02*
X29262719Y-40536666D01*
X28215100Y-40298571D02*
X28929385Y-40060476D01*
X28929385Y-40060476D02*
X28929385Y-40679523D01*
X29262719Y-43299142D02*
X28786528Y-42965809D01*
X29262719Y-42727714D02*
X28262719Y-42727714D01*
X28262719Y-42727714D02*
X28262719Y-43108666D01*
X28262719Y-43108666D02*
X28310338Y-43203904D01*
X28310338Y-43203904D02*
X28357957Y-43251523D01*
X28357957Y-43251523D02*
X28453195Y-43299142D01*
X28453195Y-43299142D02*
X28596052Y-43299142D01*
X28596052Y-43299142D02*
X28691290Y-43251523D01*
X28691290Y-43251523D02*
X28738909Y-43203904D01*
X28738909Y-43203904D02*
X28786528Y-43108666D01*
X28786528Y-43108666D02*
X28786528Y-42727714D01*
X29262719Y-44251523D02*
X29262719Y-43680095D01*
X29262719Y-43965809D02*
X28262719Y-43965809D01*
X28262719Y-43965809D02*
X28405576Y-43870571D01*
X28405576Y-43870571D02*
X28500814Y-43775333D01*
X28500814Y-43775333D02*
X28548433Y-43680095D01*
X28262719Y-45156285D02*
X28262719Y-44680095D01*
X28262719Y-44680095D02*
X28738909Y-44632476D01*
X28738909Y-44632476D02*
X28691290Y-44680095D01*
X28691290Y-44680095D02*
X28643671Y-44775333D01*
X28643671Y-44775333D02*
X28643671Y-45013428D01*
X28643671Y-45013428D02*
X28691290Y-45108666D01*
X28691290Y-45108666D02*
X28738909Y-45156285D01*
X28738909Y-45156285D02*
X28834147Y-45203904D01*
X28834147Y-45203904D02*
X29072242Y-45203904D01*
X29072242Y-45203904D02*
X29167480Y-45156285D01*
X29167480Y-45156285D02*
X29215100Y-45108666D01*
X29215100Y-45108666D02*
X29262719Y-45013428D01*
X29262719Y-45013428D02*
X29262719Y-44775333D01*
X29262719Y-44775333D02*
X29215100Y-44680095D01*
X29215100Y-44680095D02*
X29167480Y-44632476D01*
X34774094Y-55318819D02*
X34774094Y-54318819D01*
X34774094Y-54318819D02*
X34535999Y-54318819D01*
X34535999Y-54318819D02*
X34393142Y-54366438D01*
X34393142Y-54366438D02*
X34297904Y-54461676D01*
X34297904Y-54461676D02*
X34250285Y-54556914D01*
X34250285Y-54556914D02*
X34202666Y-54747390D01*
X34202666Y-54747390D02*
X34202666Y-54890247D01*
X34202666Y-54890247D02*
X34250285Y-55080723D01*
X34250285Y-55080723D02*
X34297904Y-55175961D01*
X34297904Y-55175961D02*
X34393142Y-55271200D01*
X34393142Y-55271200D02*
X34535999Y-55318819D01*
X34535999Y-55318819D02*
X34774094Y-55318819D01*
X33726475Y-55318819D02*
X33535999Y-55318819D01*
X33535999Y-55318819D02*
X33440761Y-55271200D01*
X33440761Y-55271200D02*
X33393142Y-55223580D01*
X33393142Y-55223580D02*
X33297904Y-55080723D01*
X33297904Y-55080723D02*
X33250285Y-54890247D01*
X33250285Y-54890247D02*
X33250285Y-54509295D01*
X33250285Y-54509295D02*
X33297904Y-54414057D01*
X33297904Y-54414057D02*
X33345523Y-54366438D01*
X33345523Y-54366438D02*
X33440761Y-54318819D01*
X33440761Y-54318819D02*
X33631237Y-54318819D01*
X33631237Y-54318819D02*
X33726475Y-54366438D01*
X33726475Y-54366438D02*
X33774094Y-54414057D01*
X33774094Y-54414057D02*
X33821713Y-54509295D01*
X33821713Y-54509295D02*
X33821713Y-54747390D01*
X33821713Y-54747390D02*
X33774094Y-54842628D01*
X33774094Y-54842628D02*
X33726475Y-54890247D01*
X33726475Y-54890247D02*
X33631237Y-54937866D01*
X33631237Y-54937866D02*
X33440761Y-54937866D01*
X33440761Y-54937866D02*
X33345523Y-54890247D01*
X33345523Y-54890247D02*
X33297904Y-54842628D01*
X33297904Y-54842628D02*
X33250285Y-54747390D01*
X29262719Y-61587142D02*
X28786528Y-61253809D01*
X29262719Y-61015714D02*
X28262719Y-61015714D01*
X28262719Y-61015714D02*
X28262719Y-61396666D01*
X28262719Y-61396666D02*
X28310338Y-61491904D01*
X28310338Y-61491904D02*
X28357957Y-61539523D01*
X28357957Y-61539523D02*
X28453195Y-61587142D01*
X28453195Y-61587142D02*
X28596052Y-61587142D01*
X28596052Y-61587142D02*
X28691290Y-61539523D01*
X28691290Y-61539523D02*
X28738909Y-61491904D01*
X28738909Y-61491904D02*
X28786528Y-61396666D01*
X28786528Y-61396666D02*
X28786528Y-61015714D01*
X29262719Y-62539523D02*
X29262719Y-61968095D01*
X29262719Y-62253809D02*
X28262719Y-62253809D01*
X28262719Y-62253809D02*
X28405576Y-62158571D01*
X28405576Y-62158571D02*
X28500814Y-62063333D01*
X28500814Y-62063333D02*
X28548433Y-61968095D01*
X29262719Y-63015714D02*
X29262719Y-63206190D01*
X29262719Y-63206190D02*
X29215100Y-63301428D01*
X29215100Y-63301428D02*
X29167480Y-63349047D01*
X29167480Y-63349047D02*
X29024623Y-63444285D01*
X29024623Y-63444285D02*
X28834147Y-63491904D01*
X28834147Y-63491904D02*
X28453195Y-63491904D01*
X28453195Y-63491904D02*
X28357957Y-63444285D01*
X28357957Y-63444285D02*
X28310338Y-63396666D01*
X28310338Y-63396666D02*
X28262719Y-63301428D01*
X28262719Y-63301428D02*
X28262719Y-63110952D01*
X28262719Y-63110952D02*
X28310338Y-63015714D01*
X28310338Y-63015714D02*
X28357957Y-62968095D01*
X28357957Y-62968095D02*
X28453195Y-62920476D01*
X28453195Y-62920476D02*
X28691290Y-62920476D01*
X28691290Y-62920476D02*
X28786528Y-62968095D01*
X28786528Y-62968095D02*
X28834147Y-63015714D01*
X28834147Y-63015714D02*
X28881766Y-63110952D01*
X28881766Y-63110952D02*
X28881766Y-63301428D01*
X28881766Y-63301428D02*
X28834147Y-63396666D01*
X28834147Y-63396666D02*
X28786528Y-63444285D01*
X28786528Y-63444285D02*
X28691290Y-63491904D01*
X39504857Y-44396819D02*
X39838190Y-43920628D01*
X40076285Y-44396819D02*
X40076285Y-43396819D01*
X40076285Y-43396819D02*
X39695333Y-43396819D01*
X39695333Y-43396819D02*
X39600095Y-43444438D01*
X39600095Y-43444438D02*
X39552476Y-43492057D01*
X39552476Y-43492057D02*
X39504857Y-43587295D01*
X39504857Y-43587295D02*
X39504857Y-43730152D01*
X39504857Y-43730152D02*
X39552476Y-43825390D01*
X39552476Y-43825390D02*
X39600095Y-43873009D01*
X39600095Y-43873009D02*
X39695333Y-43920628D01*
X39695333Y-43920628D02*
X40076285Y-43920628D01*
X38552476Y-44396819D02*
X39123904Y-44396819D01*
X38838190Y-44396819D02*
X38838190Y-43396819D01*
X38838190Y-43396819D02*
X38933428Y-43539676D01*
X38933428Y-43539676D02*
X39028666Y-43634914D01*
X39028666Y-43634914D02*
X39123904Y-43682533D01*
X38219142Y-43396819D02*
X37600095Y-43396819D01*
X37600095Y-43396819D02*
X37933428Y-43777771D01*
X37933428Y-43777771D02*
X37790571Y-43777771D01*
X37790571Y-43777771D02*
X37695333Y-43825390D01*
X37695333Y-43825390D02*
X37647714Y-43873009D01*
X37647714Y-43873009D02*
X37600095Y-43968247D01*
X37600095Y-43968247D02*
X37600095Y-44206342D01*
X37600095Y-44206342D02*
X37647714Y-44301580D01*
X37647714Y-44301580D02*
X37695333Y-44349200D01*
X37695333Y-44349200D02*
X37790571Y-44396819D01*
X37790571Y-44396819D02*
X38076285Y-44396819D01*
X38076285Y-44396819D02*
X38171523Y-44349200D01*
X38171523Y-44349200D02*
X38219142Y-44301580D01*
X50014094Y-41602819D02*
X50014094Y-40602819D01*
X50014094Y-40602819D02*
X49775999Y-40602819D01*
X49775999Y-40602819D02*
X49633142Y-40650438D01*
X49633142Y-40650438D02*
X49537904Y-40745676D01*
X49537904Y-40745676D02*
X49490285Y-40840914D01*
X49490285Y-40840914D02*
X49442666Y-41031390D01*
X49442666Y-41031390D02*
X49442666Y-41174247D01*
X49442666Y-41174247D02*
X49490285Y-41364723D01*
X49490285Y-41364723D02*
X49537904Y-41459961D01*
X49537904Y-41459961D02*
X49633142Y-41555200D01*
X49633142Y-41555200D02*
X49775999Y-41602819D01*
X49775999Y-41602819D02*
X50014094Y-41602819D01*
X49109332Y-40602819D02*
X48490285Y-40602819D01*
X48490285Y-40602819D02*
X48823618Y-40983771D01*
X48823618Y-40983771D02*
X48680761Y-40983771D01*
X48680761Y-40983771D02*
X48585523Y-41031390D01*
X48585523Y-41031390D02*
X48537904Y-41079009D01*
X48537904Y-41079009D02*
X48490285Y-41174247D01*
X48490285Y-41174247D02*
X48490285Y-41412342D01*
X48490285Y-41412342D02*
X48537904Y-41507580D01*
X48537904Y-41507580D02*
X48585523Y-41555200D01*
X48585523Y-41555200D02*
X48680761Y-41602819D01*
X48680761Y-41602819D02*
X48966475Y-41602819D01*
X48966475Y-41602819D02*
X49061713Y-41555200D01*
X49061713Y-41555200D02*
X49109332Y-41507580D01*
X39854094Y-41602819D02*
X39854094Y-40602819D01*
X39854094Y-40602819D02*
X39615999Y-40602819D01*
X39615999Y-40602819D02*
X39473142Y-40650438D01*
X39473142Y-40650438D02*
X39377904Y-40745676D01*
X39377904Y-40745676D02*
X39330285Y-40840914D01*
X39330285Y-40840914D02*
X39282666Y-41031390D01*
X39282666Y-41031390D02*
X39282666Y-41174247D01*
X39282666Y-41174247D02*
X39330285Y-41364723D01*
X39330285Y-41364723D02*
X39377904Y-41459961D01*
X39377904Y-41459961D02*
X39473142Y-41555200D01*
X39473142Y-41555200D02*
X39615999Y-41602819D01*
X39615999Y-41602819D02*
X39854094Y-41602819D01*
X38377904Y-40602819D02*
X38854094Y-40602819D01*
X38854094Y-40602819D02*
X38901713Y-41079009D01*
X38901713Y-41079009D02*
X38854094Y-41031390D01*
X38854094Y-41031390D02*
X38758856Y-40983771D01*
X38758856Y-40983771D02*
X38520761Y-40983771D01*
X38520761Y-40983771D02*
X38425523Y-41031390D01*
X38425523Y-41031390D02*
X38377904Y-41079009D01*
X38377904Y-41079009D02*
X38330285Y-41174247D01*
X38330285Y-41174247D02*
X38330285Y-41412342D01*
X38330285Y-41412342D02*
X38377904Y-41507580D01*
X38377904Y-41507580D02*
X38425523Y-41555200D01*
X38425523Y-41555200D02*
X38520761Y-41602819D01*
X38520761Y-41602819D02*
X38758856Y-41602819D01*
X38758856Y-41602819D02*
X38854094Y-41555200D01*
X38854094Y-41555200D02*
X38901713Y-41507580D01*
X34774094Y-50746819D02*
X34774094Y-49746819D01*
X34774094Y-49746819D02*
X34535999Y-49746819D01*
X34535999Y-49746819D02*
X34393142Y-49794438D01*
X34393142Y-49794438D02*
X34297904Y-49889676D01*
X34297904Y-49889676D02*
X34250285Y-49984914D01*
X34250285Y-49984914D02*
X34202666Y-50175390D01*
X34202666Y-50175390D02*
X34202666Y-50318247D01*
X34202666Y-50318247D02*
X34250285Y-50508723D01*
X34250285Y-50508723D02*
X34297904Y-50603961D01*
X34297904Y-50603961D02*
X34393142Y-50699200D01*
X34393142Y-50699200D02*
X34535999Y-50746819D01*
X34535999Y-50746819D02*
X34774094Y-50746819D01*
X33631237Y-50175390D02*
X33726475Y-50127771D01*
X33726475Y-50127771D02*
X33774094Y-50080152D01*
X33774094Y-50080152D02*
X33821713Y-49984914D01*
X33821713Y-49984914D02*
X33821713Y-49937295D01*
X33821713Y-49937295D02*
X33774094Y-49842057D01*
X33774094Y-49842057D02*
X33726475Y-49794438D01*
X33726475Y-49794438D02*
X33631237Y-49746819D01*
X33631237Y-49746819D02*
X33440761Y-49746819D01*
X33440761Y-49746819D02*
X33345523Y-49794438D01*
X33345523Y-49794438D02*
X33297904Y-49842057D01*
X33297904Y-49842057D02*
X33250285Y-49937295D01*
X33250285Y-49937295D02*
X33250285Y-49984914D01*
X33250285Y-49984914D02*
X33297904Y-50080152D01*
X33297904Y-50080152D02*
X33345523Y-50127771D01*
X33345523Y-50127771D02*
X33440761Y-50175390D01*
X33440761Y-50175390D02*
X33631237Y-50175390D01*
X33631237Y-50175390D02*
X33726475Y-50223009D01*
X33726475Y-50223009D02*
X33774094Y-50270628D01*
X33774094Y-50270628D02*
X33821713Y-50365866D01*
X33821713Y-50365866D02*
X33821713Y-50556342D01*
X33821713Y-50556342D02*
X33774094Y-50651580D01*
X33774094Y-50651580D02*
X33726475Y-50699200D01*
X33726475Y-50699200D02*
X33631237Y-50746819D01*
X33631237Y-50746819D02*
X33440761Y-50746819D01*
X33440761Y-50746819D02*
X33345523Y-50699200D01*
X33345523Y-50699200D02*
X33297904Y-50651580D01*
X33297904Y-50651580D02*
X33250285Y-50556342D01*
X33250285Y-50556342D02*
X33250285Y-50365866D01*
X33250285Y-50365866D02*
X33297904Y-50270628D01*
X33297904Y-50270628D02*
X33345523Y-50223009D01*
X33345523Y-50223009D02*
X33440761Y-50175390D01*
X34774094Y-46174819D02*
X34774094Y-45174819D01*
X34774094Y-45174819D02*
X34535999Y-45174819D01*
X34535999Y-45174819D02*
X34393142Y-45222438D01*
X34393142Y-45222438D02*
X34297904Y-45317676D01*
X34297904Y-45317676D02*
X34250285Y-45412914D01*
X34250285Y-45412914D02*
X34202666Y-45603390D01*
X34202666Y-45603390D02*
X34202666Y-45746247D01*
X34202666Y-45746247D02*
X34250285Y-45936723D01*
X34250285Y-45936723D02*
X34297904Y-46031961D01*
X34297904Y-46031961D02*
X34393142Y-46127200D01*
X34393142Y-46127200D02*
X34535999Y-46174819D01*
X34535999Y-46174819D02*
X34774094Y-46174819D01*
X33869332Y-45174819D02*
X33202666Y-45174819D01*
X33202666Y-45174819D02*
X33631237Y-46174819D01*
X34742285Y-64462819D02*
X34742285Y-63462819D01*
X34742285Y-63462819D02*
X34504190Y-63462819D01*
X34504190Y-63462819D02*
X34361333Y-63510438D01*
X34361333Y-63510438D02*
X34266095Y-63605676D01*
X34266095Y-63605676D02*
X34218476Y-63700914D01*
X34218476Y-63700914D02*
X34170857Y-63891390D01*
X34170857Y-63891390D02*
X34170857Y-64034247D01*
X34170857Y-64034247D02*
X34218476Y-64224723D01*
X34218476Y-64224723D02*
X34266095Y-64319961D01*
X34266095Y-64319961D02*
X34361333Y-64415200D01*
X34361333Y-64415200D02*
X34504190Y-64462819D01*
X34504190Y-64462819D02*
X34742285Y-64462819D01*
X33218476Y-64462819D02*
X33789904Y-64462819D01*
X33504190Y-64462819D02*
X33504190Y-63462819D01*
X33504190Y-63462819D02*
X33599428Y-63605676D01*
X33599428Y-63605676D02*
X33694666Y-63700914D01*
X33694666Y-63700914D02*
X33789904Y-63748533D01*
X32266095Y-64462819D02*
X32837523Y-64462819D01*
X32551809Y-64462819D02*
X32551809Y-63462819D01*
X32551809Y-63462819D02*
X32647047Y-63605676D01*
X32647047Y-63605676D02*
X32742285Y-63700914D01*
X32742285Y-63700914D02*
X32837523Y-63748533D01*
X34774094Y-41602819D02*
X34774094Y-40602819D01*
X34774094Y-40602819D02*
X34535999Y-40602819D01*
X34535999Y-40602819D02*
X34393142Y-40650438D01*
X34393142Y-40650438D02*
X34297904Y-40745676D01*
X34297904Y-40745676D02*
X34250285Y-40840914D01*
X34250285Y-40840914D02*
X34202666Y-41031390D01*
X34202666Y-41031390D02*
X34202666Y-41174247D01*
X34202666Y-41174247D02*
X34250285Y-41364723D01*
X34250285Y-41364723D02*
X34297904Y-41459961D01*
X34297904Y-41459961D02*
X34393142Y-41555200D01*
X34393142Y-41555200D02*
X34535999Y-41602819D01*
X34535999Y-41602819D02*
X34774094Y-41602819D01*
X33345523Y-40602819D02*
X33535999Y-40602819D01*
X33535999Y-40602819D02*
X33631237Y-40650438D01*
X33631237Y-40650438D02*
X33678856Y-40698057D01*
X33678856Y-40698057D02*
X33774094Y-40840914D01*
X33774094Y-40840914D02*
X33821713Y-41031390D01*
X33821713Y-41031390D02*
X33821713Y-41412342D01*
X33821713Y-41412342D02*
X33774094Y-41507580D01*
X33774094Y-41507580D02*
X33726475Y-41555200D01*
X33726475Y-41555200D02*
X33631237Y-41602819D01*
X33631237Y-41602819D02*
X33440761Y-41602819D01*
X33440761Y-41602819D02*
X33345523Y-41555200D01*
X33345523Y-41555200D02*
X33297904Y-41507580D01*
X33297904Y-41507580D02*
X33250285Y-41412342D01*
X33250285Y-41412342D02*
X33250285Y-41174247D01*
X33250285Y-41174247D02*
X33297904Y-41079009D01*
X33297904Y-41079009D02*
X33345523Y-41031390D01*
X33345523Y-41031390D02*
X33440761Y-40983771D01*
X33440761Y-40983771D02*
X33631237Y-40983771D01*
X33631237Y-40983771D02*
X33726475Y-41031390D01*
X33726475Y-41031390D02*
X33774094Y-41079009D01*
X33774094Y-41079009D02*
X33821713Y-41174247D01*
X29250819Y-66171142D02*
X28774628Y-65837809D01*
X29250819Y-65599714D02*
X28250819Y-65599714D01*
X28250819Y-65599714D02*
X28250819Y-65980666D01*
X28250819Y-65980666D02*
X28298438Y-66075904D01*
X28298438Y-66075904D02*
X28346057Y-66123523D01*
X28346057Y-66123523D02*
X28441295Y-66171142D01*
X28441295Y-66171142D02*
X28584152Y-66171142D01*
X28584152Y-66171142D02*
X28679390Y-66123523D01*
X28679390Y-66123523D02*
X28727009Y-66075904D01*
X28727009Y-66075904D02*
X28774628Y-65980666D01*
X28774628Y-65980666D02*
X28774628Y-65599714D01*
X28346057Y-66552095D02*
X28298438Y-66599714D01*
X28298438Y-66599714D02*
X28250819Y-66694952D01*
X28250819Y-66694952D02*
X28250819Y-66933047D01*
X28250819Y-66933047D02*
X28298438Y-67028285D01*
X28298438Y-67028285D02*
X28346057Y-67075904D01*
X28346057Y-67075904D02*
X28441295Y-67123523D01*
X28441295Y-67123523D02*
X28536533Y-67123523D01*
X28536533Y-67123523D02*
X28679390Y-67075904D01*
X28679390Y-67075904D02*
X29250819Y-66504476D01*
X29250819Y-66504476D02*
X29250819Y-67123523D01*
X28250819Y-67742571D02*
X28250819Y-67837809D01*
X28250819Y-67837809D02*
X28298438Y-67933047D01*
X28298438Y-67933047D02*
X28346057Y-67980666D01*
X28346057Y-67980666D02*
X28441295Y-68028285D01*
X28441295Y-68028285D02*
X28631771Y-68075904D01*
X28631771Y-68075904D02*
X28869866Y-68075904D01*
X28869866Y-68075904D02*
X29060342Y-68028285D01*
X29060342Y-68028285D02*
X29155580Y-67980666D01*
X29155580Y-67980666D02*
X29203200Y-67933047D01*
X29203200Y-67933047D02*
X29250819Y-67837809D01*
X29250819Y-67837809D02*
X29250819Y-67742571D01*
X29250819Y-67742571D02*
X29203200Y-67647333D01*
X29203200Y-67647333D02*
X29155580Y-67599714D01*
X29155580Y-67599714D02*
X29060342Y-67552095D01*
X29060342Y-67552095D02*
X28869866Y-67504476D01*
X28869866Y-67504476D02*
X28631771Y-67504476D01*
X28631771Y-67504476D02*
X28441295Y-67552095D01*
X28441295Y-67552095D02*
X28346057Y-67599714D01*
X28346057Y-67599714D02*
X28298438Y-67647333D01*
X28298438Y-67647333D02*
X28250819Y-67742571D01*
X34742285Y-69034819D02*
X34742285Y-68034819D01*
X34742285Y-68034819D02*
X34504190Y-68034819D01*
X34504190Y-68034819D02*
X34361333Y-68082438D01*
X34361333Y-68082438D02*
X34266095Y-68177676D01*
X34266095Y-68177676D02*
X34218476Y-68272914D01*
X34218476Y-68272914D02*
X34170857Y-68463390D01*
X34170857Y-68463390D02*
X34170857Y-68606247D01*
X34170857Y-68606247D02*
X34218476Y-68796723D01*
X34218476Y-68796723D02*
X34266095Y-68891961D01*
X34266095Y-68891961D02*
X34361333Y-68987200D01*
X34361333Y-68987200D02*
X34504190Y-69034819D01*
X34504190Y-69034819D02*
X34742285Y-69034819D01*
X33218476Y-69034819D02*
X33789904Y-69034819D01*
X33504190Y-69034819D02*
X33504190Y-68034819D01*
X33504190Y-68034819D02*
X33599428Y-68177676D01*
X33599428Y-68177676D02*
X33694666Y-68272914D01*
X33694666Y-68272914D02*
X33789904Y-68320533D01*
X32837523Y-68130057D02*
X32789904Y-68082438D01*
X32789904Y-68082438D02*
X32694666Y-68034819D01*
X32694666Y-68034819D02*
X32456571Y-68034819D01*
X32456571Y-68034819D02*
X32361333Y-68082438D01*
X32361333Y-68082438D02*
X32313714Y-68130057D01*
X32313714Y-68130057D02*
X32266095Y-68225295D01*
X32266095Y-68225295D02*
X32266095Y-68320533D01*
X32266095Y-68320533D02*
X32313714Y-68463390D01*
X32313714Y-68463390D02*
X32885142Y-69034819D01*
X32885142Y-69034819D02*
X32266095Y-69034819D01*
D11*
%TO.C,R11*%
X48870776Y-42149500D02*
X49380224Y-42149500D01*
X48870776Y-43194500D02*
X49380224Y-43194500D01*
%TO.C,R12*%
X43536776Y-42149500D02*
X44046224Y-42149500D01*
X43536776Y-43194500D02*
X44046224Y-43194500D01*
%TO.C,D2*%
X55413000Y-38290000D02*
X55413000Y-38134000D01*
X55413000Y-40606000D02*
X55413000Y-40450000D01*
X52180666Y-38291392D02*
G75*
G02*
X55412999Y-38134485I1672334J-1078608D01*
G01*
X52811871Y-38290164D02*
G75*
G02*
X54893960Y-38290001I1041129J-1079836D01*
G01*
X54893960Y-40449999D02*
G75*
G02*
X52811871Y-40449836I-1040960J1079999D01*
G01*
X55412999Y-40605515D02*
G75*
G02*
X52180666Y-40448608I-1559999J1235515D01*
G01*
%TO.C,R10*%
X53950776Y-42149500D02*
X54460224Y-42149500D01*
X53950776Y-43194500D02*
X54460224Y-43194500D01*
%TO.C,R9*%
X59030776Y-42149500D02*
X59540224Y-42149500D01*
X59030776Y-43194500D02*
X59540224Y-43194500D01*
%TO.C,R16*%
X29602400Y-48768724D02*
X29602400Y-48259276D01*
X30647400Y-48768724D02*
X30647400Y-48259276D01*
%TO.C,R17*%
X29715400Y-53340724D02*
X29715400Y-52831276D01*
X30760400Y-53340724D02*
X30760400Y-52831276D01*
%TO.C,R18*%
X29715400Y-57912724D02*
X29715400Y-57403276D01*
X30760400Y-57912724D02*
X30760400Y-57403276D01*
%TO.C,D1*%
X60488000Y-38290000D02*
X60488000Y-38134000D01*
X60488000Y-40606000D02*
X60488000Y-40450000D01*
X57255666Y-38291392D02*
G75*
G02*
X60487999Y-38134485I1672334J-1078608D01*
G01*
X57886871Y-38290164D02*
G75*
G02*
X59968960Y-38290001I1041129J-1079836D01*
G01*
X59968960Y-40449999D02*
G75*
G02*
X57886871Y-40449836I-1040960J1079999D01*
G01*
X60487999Y-40605515D02*
G75*
G02*
X57255666Y-40448608I-1559999J1235515D01*
G01*
%TO.C,SW1*%
X39930000Y-44500000D02*
X44540000Y-44500000D01*
X39930000Y-47200000D02*
X39930000Y-44500000D01*
X39930000Y-52200000D02*
X39930000Y-49400000D01*
X39930000Y-57110000D02*
X39930000Y-54400000D01*
X44540000Y-57110000D02*
X39930000Y-57110000D01*
X48940000Y-44490000D02*
X53550000Y-44490000D01*
X53550000Y-44490000D02*
X53550000Y-47250000D01*
X53550000Y-49950000D02*
X53550000Y-49350000D01*
X53550000Y-52450000D02*
X53550000Y-51650000D01*
X53550000Y-57110000D02*
X48940000Y-57110000D01*
X53550000Y-57110000D02*
X53550000Y-54150000D01*
%TO.C,D10*%
X35088000Y-56578000D02*
X35088000Y-56422000D01*
X35088000Y-58894000D02*
X35088000Y-58738000D01*
X31855666Y-56579392D02*
G75*
G02*
X35087999Y-56422485I1672334J-1078608D01*
G01*
X32486871Y-56578164D02*
G75*
G02*
X34568960Y-56578001I1041129J-1079836D01*
G01*
X34568960Y-58737999D02*
G75*
G02*
X32486871Y-58737836I-1040960J1079999D01*
G01*
X35087999Y-58893515D02*
G75*
G02*
X31855666Y-58736608I-1559999J1235515D01*
G01*
%TO.C,D4*%
X45248000Y-38290000D02*
X45248000Y-38134000D01*
X45248000Y-40606000D02*
X45248000Y-40450000D01*
X42015666Y-38291392D02*
G75*
G02*
X45247999Y-38134485I1672334J-1078608D01*
G01*
X42646871Y-38290164D02*
G75*
G02*
X44728960Y-38290001I1041129J-1079836D01*
G01*
X44728960Y-40449999D02*
G75*
G02*
X42646871Y-40449836I-1040960J1079999D01*
G01*
X45247999Y-40605515D02*
G75*
G02*
X42015666Y-40448608I-1559999J1235515D01*
G01*
%TO.C,R14*%
X29715400Y-39624724D02*
X29715400Y-39115276D01*
X30760400Y-39624724D02*
X30760400Y-39115276D01*
%TO.C,R15*%
X29715400Y-44196724D02*
X29715400Y-43687276D01*
X30760400Y-44196724D02*
X30760400Y-43687276D01*
%TO.C,D9*%
X35088000Y-52006000D02*
X35088000Y-51850000D01*
X35088000Y-54322000D02*
X35088000Y-54166000D01*
X31855666Y-52007392D02*
G75*
G02*
X35087999Y-51850485I1672334J-1078608D01*
G01*
X32486871Y-52006164D02*
G75*
G02*
X34568960Y-52006001I1041129J-1079836D01*
G01*
X34568960Y-54165999D02*
G75*
G02*
X32486871Y-54165836I-1040960J1079999D01*
G01*
X35087999Y-54321515D02*
G75*
G02*
X31855666Y-54164608I-1559999J1235515D01*
G01*
%TO.C,R19*%
X29715400Y-62484724D02*
X29715400Y-61975276D01*
X30760400Y-62484724D02*
X30760400Y-61975276D01*
%TO.C,R13*%
X38456776Y-41895500D02*
X38966224Y-41895500D01*
X38456776Y-42940500D02*
X38966224Y-42940500D01*
%TO.C,D3*%
X50328000Y-38290000D02*
X50328000Y-38134000D01*
X50328000Y-40606000D02*
X50328000Y-40450000D01*
X47095666Y-38291392D02*
G75*
G02*
X50327999Y-38134485I1672334J-1078608D01*
G01*
X47726871Y-38290164D02*
G75*
G02*
X49808960Y-38290001I1041129J-1079836D01*
G01*
X49808960Y-40449999D02*
G75*
G02*
X47726871Y-40449836I-1040960J1079999D01*
G01*
X50327999Y-40605515D02*
G75*
G02*
X47095666Y-40448608I-1559999J1235515D01*
G01*
%TO.C,D5*%
X40168000Y-38290000D02*
X40168000Y-38134000D01*
X40168000Y-40606000D02*
X40168000Y-40450000D01*
X36935666Y-38291392D02*
G75*
G02*
X40167999Y-38134485I1672334J-1078608D01*
G01*
X37566871Y-38290164D02*
G75*
G02*
X39648960Y-38290001I1041129J-1079836D01*
G01*
X39648960Y-40449999D02*
G75*
G02*
X37566871Y-40449836I-1040960J1079999D01*
G01*
X40167999Y-40605515D02*
G75*
G02*
X36935666Y-40448608I-1559999J1235515D01*
G01*
%TO.C,D8*%
X35088000Y-47434000D02*
X35088000Y-47278000D01*
X35088000Y-49750000D02*
X35088000Y-49594000D01*
X31855666Y-47435392D02*
G75*
G02*
X35087999Y-47278485I1672334J-1078608D01*
G01*
X32486871Y-47434164D02*
G75*
G02*
X34568960Y-47434001I1041129J-1079836D01*
G01*
X34568960Y-49593999D02*
G75*
G02*
X32486871Y-49593836I-1040960J1079999D01*
G01*
X35087999Y-49749515D02*
G75*
G02*
X31855666Y-49592608I-1559999J1235515D01*
G01*
%TO.C,D7*%
X35088000Y-42862000D02*
X35088000Y-42706000D01*
X35088000Y-45178000D02*
X35088000Y-45022000D01*
X31855666Y-42863392D02*
G75*
G02*
X35087999Y-42706485I1672334J-1078608D01*
G01*
X32486871Y-42862164D02*
G75*
G02*
X34568960Y-42862001I1041129J-1079836D01*
G01*
X34568960Y-45021999D02*
G75*
G02*
X32486871Y-45021836I-1040960J1079999D01*
G01*
X35087999Y-45177515D02*
G75*
G02*
X31855666Y-45020608I-1559999J1235515D01*
G01*
%TO.C,D11*%
X35088000Y-61150000D02*
X35088000Y-60994000D01*
X35088000Y-63466000D02*
X35088000Y-63310000D01*
X31855666Y-61151392D02*
G75*
G02*
X35087999Y-60994485I1672334J-1078608D01*
G01*
X32486871Y-61150164D02*
G75*
G02*
X34568960Y-61150001I1041129J-1079836D01*
G01*
X34568960Y-63309999D02*
G75*
G02*
X32486871Y-63309836I-1040960J1079999D01*
G01*
X35087999Y-63465515D02*
G75*
G02*
X31855666Y-63308608I-1559999J1235515D01*
G01*
%TO.C,D6*%
X35088000Y-38290000D02*
X35088000Y-38134000D01*
X35088000Y-40606000D02*
X35088000Y-40450000D01*
X31855666Y-38291392D02*
G75*
G02*
X35087999Y-38134485I1672334J-1078608D01*
G01*
X32486871Y-38290164D02*
G75*
G02*
X34568960Y-38290001I1041129J-1079836D01*
G01*
X34568960Y-40449999D02*
G75*
G02*
X32486871Y-40449836I-1040960J1079999D01*
G01*
X35087999Y-40605515D02*
G75*
G02*
X31855666Y-40448608I-1559999J1235515D01*
G01*
%TO.C,R20*%
X29703500Y-67068724D02*
X29703500Y-66559276D01*
X30748500Y-67068724D02*
X30748500Y-66559276D01*
%TO.C,D12*%
X35076100Y-65734000D02*
X35076100Y-65578000D01*
X35076100Y-68050000D02*
X35076100Y-67894000D01*
X31843766Y-65735392D02*
G75*
G02*
X35076099Y-65578485I1672334J-1078608D01*
G01*
X32474971Y-65734164D02*
G75*
G02*
X34557060Y-65734001I1041129J-1079836D01*
G01*
X34557060Y-67893999D02*
G75*
G02*
X32474971Y-67893836I-1040960J1079999D01*
G01*
X35076099Y-68049515D02*
G75*
G02*
X31843766Y-67892608I-1559999J1235515D01*
G01*
%TD*%
%LPC*%
D12*
%TO.C,J1*%
X41811500Y-65174000D03*
D13*
X44311500Y-65174000D03*
X46811500Y-65174000D03*
X49311500Y-65174000D03*
X51811500Y-65174000D03*
%TD*%
D14*
%TO.C,R11*%
X50038000Y-42672000D03*
X48213000Y-42672000D03*
%TD*%
%TO.C,R12*%
X44704000Y-42672000D03*
X42879000Y-42672000D03*
%TD*%
D15*
%TO.C,D2*%
X55123000Y-39370000D03*
D16*
X52583000Y-39370000D03*
%TD*%
D14*
%TO.C,R10*%
X55118000Y-42672000D03*
X53293000Y-42672000D03*
%TD*%
%TO.C,R9*%
X60198000Y-42672000D03*
X58373000Y-42672000D03*
%TD*%
D17*
%TO.C,R16*%
X30124900Y-47601500D03*
X30124900Y-49426500D03*
%TD*%
%TO.C,R17*%
X30237900Y-52173500D03*
X30237900Y-53998500D03*
%TD*%
%TO.C,R18*%
X30237900Y-56745500D03*
X30237900Y-58570500D03*
%TD*%
D15*
%TO.C,D1*%
X60198000Y-39370000D03*
D16*
X57658000Y-39370000D03*
%TD*%
D18*
%TO.C,SW1*%
X54240000Y-48300000D03*
D19*
X54240000Y-53300000D03*
X54240000Y-50800000D03*
X39740000Y-48300000D03*
X39740000Y-53300000D03*
D20*
X46740000Y-56400000D03*
X46740000Y-45200000D03*
%TD*%
D15*
%TO.C,D10*%
X34798000Y-57658000D03*
D16*
X32258000Y-57658000D03*
%TD*%
D15*
%TO.C,D4*%
X44958000Y-39370000D03*
D16*
X42418000Y-39370000D03*
%TD*%
D17*
%TO.C,R14*%
X30237900Y-38457500D03*
X30237900Y-40282500D03*
%TD*%
%TO.C,R15*%
X30237900Y-43029500D03*
X30237900Y-44854500D03*
%TD*%
D15*
%TO.C,D9*%
X34798000Y-53086000D03*
D16*
X32258000Y-53086000D03*
%TD*%
D17*
%TO.C,R19*%
X30237900Y-61317500D03*
X30237900Y-63142500D03*
%TD*%
D14*
%TO.C,R13*%
X39624000Y-42418000D03*
X37799000Y-42418000D03*
%TD*%
D15*
%TO.C,D3*%
X50038000Y-39370000D03*
D16*
X47498000Y-39370000D03*
%TD*%
D15*
%TO.C,D5*%
X39878000Y-39370000D03*
D16*
X37338000Y-39370000D03*
%TD*%
D15*
%TO.C,D8*%
X34798000Y-48514000D03*
D16*
X32258000Y-48514000D03*
%TD*%
D15*
%TO.C,D7*%
X34798000Y-43942000D03*
D16*
X32258000Y-43942000D03*
%TD*%
D15*
%TO.C,D11*%
X34798000Y-62230000D03*
D16*
X32258000Y-62230000D03*
%TD*%
D15*
%TO.C,D6*%
X34798000Y-39370000D03*
D16*
X32258000Y-39370000D03*
%TD*%
D17*
%TO.C,R20*%
X30226000Y-65901500D03*
X30226000Y-67726500D03*
%TD*%
D15*
%TO.C,D12*%
X34786100Y-66814000D03*
D16*
X32246100Y-66814000D03*
%TD*%
%LPD*%
M02*
