%TF.GenerationSoftware,KiCad,Pcbnew,8.0.1+1*%
%TF.CreationDate,2024-05-08T14:56:33-06:00*%
%TF.ProjectId,encoder-to-i2c-tssop20.kicad_pro,656e636f-6465-4722-9d74-6f2d6932632d,rev?*%
%TF.SameCoordinates,Original*%
%TF.FileFunction,Copper,L2,Bot*%
%TF.FilePolarity,Positive*%
%FSLAX46Y46*%
G04 Gerber Fmt 4.6, Leading zero omitted, Abs format (unit mm)*
G04 Created by KiCad (PCBNEW 8.0.1+1) date 2024-05-08 14:56:33*
%MOMM*%
%LPD*%
G01*
G04 APERTURE LIST*
G04 Aperture macros list*
%AMRoundRect*
0 Rectangle with rounded corners*
0 $1 Rounding radius*
0 $2 $3 $4 $5 $6 $7 $8 $9 X,Y pos of 4 corners*
0 Add a 4 corners polygon primitive as box body*
4,1,4,$2,$3,$4,$5,$6,$7,$8,$9,$2,$3,0*
0 Add four circle primitives for the rounded corners*
1,1,$1+$1,$2,$3*
1,1,$1+$1,$4,$5*
1,1,$1+$1,$6,$7*
1,1,$1+$1,$8,$9*
0 Add four rect primitives between the rounded corners*
20,1,$1+$1,$2,$3,$4,$5,0*
20,1,$1+$1,$4,$5,$6,$7,0*
20,1,$1+$1,$6,$7,$8,$9,0*
20,1,$1+$1,$8,$9,$2,$3,0*%
G04 Aperture macros list end*
%TA.AperFunction,ComponentPad*%
%ADD10RoundRect,0.250000X-0.600000X-0.725000X0.600000X-0.725000X0.600000X0.725000X-0.600000X0.725000X0*%
%TD*%
%TA.AperFunction,ComponentPad*%
%ADD11O,1.700000X1.950000*%
%TD*%
%TA.AperFunction,SMDPad,CuDef*%
%ADD12RoundRect,0.237500X0.250000X0.237500X-0.250000X0.237500X-0.250000X-0.237500X0.250000X-0.237500X0*%
%TD*%
%TA.AperFunction,ComponentPad*%
%ADD13R,1.800000X1.800000*%
%TD*%
%TA.AperFunction,ComponentPad*%
%ADD14C,1.800000*%
%TD*%
%TA.AperFunction,SMDPad,CuDef*%
%ADD15RoundRect,0.237500X-0.237500X0.250000X-0.237500X-0.250000X0.237500X-0.250000X0.237500X0.250000X0*%
%TD*%
%TA.AperFunction,ComponentPad*%
%ADD16RoundRect,0.250000X0.550000X0.550000X-0.550000X0.550000X-0.550000X-0.550000X0.550000X-0.550000X0*%
%TD*%
%TA.AperFunction,ComponentPad*%
%ADD17C,1.600000*%
%TD*%
%TA.AperFunction,ComponentPad*%
%ADD18O,4.100000X3.000000*%
%TD*%
%TA.AperFunction,ViaPad*%
%ADD19C,0.600000*%
%TD*%
%TA.AperFunction,ViaPad*%
%ADD20C,1.000000*%
%TD*%
%TA.AperFunction,Conductor*%
%ADD21C,1.000000*%
%TD*%
%TA.AperFunction,Conductor*%
%ADD22C,0.300000*%
%TD*%
G04 APERTURE END LIST*
D10*
%TO.P,J1,1,Pin_1*%
%TO.N,+3V3*%
X41811500Y-65174000D03*
D11*
%TO.P,J1,2,Pin_2*%
%TO.N,GND*%
X44311500Y-65174000D03*
%TO.P,J1,3,Pin_3*%
%TO.N,/SWD*%
X46811500Y-65174000D03*
%TO.P,J1,4,Pin_4*%
%TO.N,/SDA*%
X49311500Y-65174000D03*
%TO.P,J1,5,Pin_5*%
%TO.N,/SCL*%
X51811500Y-65174000D03*
%TD*%
D12*
%TO.P,R11,1*%
%TO.N,Net-(D3-A)*%
X50038000Y-42672000D03*
%TO.P,R11,2*%
%TO.N,/PC5*%
X48213000Y-42672000D03*
%TD*%
%TO.P,R12,1*%
%TO.N,Net-(D4-A)*%
X44704000Y-42672000D03*
%TO.P,R12,2*%
%TO.N,/PC6*%
X42879000Y-42672000D03*
%TD*%
D13*
%TO.P,D2,1,K*%
%TO.N,GND*%
X55123000Y-39370000D03*
D14*
%TO.P,D2,2,A*%
%TO.N,Net-(D2-A)*%
X52583000Y-39370000D03*
%TD*%
D12*
%TO.P,R10,1*%
%TO.N,Net-(D2-A)*%
X55118000Y-42672000D03*
%TO.P,R10,2*%
%TO.N,/PC3*%
X53293000Y-42672000D03*
%TD*%
%TO.P,R9,1*%
%TO.N,Net-(D1-A)*%
X60198000Y-42672000D03*
%TO.P,R9,2*%
%TO.N,/PC0*%
X58373000Y-42672000D03*
%TD*%
D15*
%TO.P,R16,1*%
%TO.N,Net-(D8-A)*%
X30124900Y-47601500D03*
%TO.P,R16,2*%
%TO.N,/PD5*%
X30124900Y-49426500D03*
%TD*%
%TO.P,R17,1*%
%TO.N,Net-(D9-A)*%
X30237900Y-52173500D03*
%TO.P,R17,2*%
%TO.N,/PD4*%
X30237900Y-53998500D03*
%TD*%
%TO.P,R18,1*%
%TO.N,Net-(D10-A)*%
X30237900Y-56745500D03*
%TO.P,R18,2*%
%TO.N,/PD3*%
X30237900Y-58570500D03*
%TD*%
D13*
%TO.P,D1,1,K*%
%TO.N,GND*%
X60198000Y-39370000D03*
D14*
%TO.P,D1,2,A*%
%TO.N,Net-(D1-A)*%
X57658000Y-39370000D03*
%TD*%
D16*
%TO.P,SW1,A,A*%
%TO.N,Net-(R2-Pad2)*%
X54240000Y-48300000D03*
D17*
%TO.P,SW1,B,B*%
%TO.N,Net-(R3-Pad2)*%
X54240000Y-53300000D03*
%TO.P,SW1,C,C*%
%TO.N,GND*%
X54240000Y-50800000D03*
%TO.P,SW1,S1,S1*%
%TO.N,Net-(R1-Pad2)*%
X39740000Y-48300000D03*
%TO.P,SW1,S2,S2*%
%TO.N,GND*%
X39740000Y-53300000D03*
D18*
%TO.P,SW1,SH*%
%TO.N,N/C*%
X46740000Y-56400000D03*
X46740000Y-45200000D03*
%TD*%
D13*
%TO.P,D10,1,K*%
%TO.N,GND*%
X34798000Y-57658000D03*
D14*
%TO.P,D10,2,A*%
%TO.N,Net-(D10-A)*%
X32258000Y-57658000D03*
%TD*%
D13*
%TO.P,D4,1,K*%
%TO.N,GND*%
X44958000Y-39370000D03*
D14*
%TO.P,D4,2,A*%
%TO.N,Net-(D4-A)*%
X42418000Y-39370000D03*
%TD*%
D15*
%TO.P,R14,1*%
%TO.N,Net-(D6-A)*%
X30237900Y-38457500D03*
%TO.P,R14,2*%
%TO.N,/PD7*%
X30237900Y-40282500D03*
%TD*%
%TO.P,R15,1*%
%TO.N,Net-(D7-A)*%
X30237900Y-43029500D03*
%TO.P,R15,2*%
%TO.N,/PD6*%
X30237900Y-44854500D03*
%TD*%
D13*
%TO.P,D9,1,K*%
%TO.N,GND*%
X34798000Y-53086000D03*
D14*
%TO.P,D9,2,A*%
%TO.N,Net-(D9-A)*%
X32258000Y-53086000D03*
%TD*%
D15*
%TO.P,R19,1*%
%TO.N,Net-(D11-A)*%
X30237900Y-61317500D03*
%TO.P,R19,2*%
%TO.N,/PD2*%
X30237900Y-63142500D03*
%TD*%
D12*
%TO.P,R13,1*%
%TO.N,Net-(D5-A)*%
X39624000Y-42418000D03*
%TO.P,R13,2*%
%TO.N,/PC7*%
X37799000Y-42418000D03*
%TD*%
D13*
%TO.P,D3,1,K*%
%TO.N,GND*%
X50038000Y-39370000D03*
D14*
%TO.P,D3,2,A*%
%TO.N,Net-(D3-A)*%
X47498000Y-39370000D03*
%TD*%
D13*
%TO.P,D5,1,K*%
%TO.N,GND*%
X39878000Y-39370000D03*
D14*
%TO.P,D5,2,A*%
%TO.N,Net-(D5-A)*%
X37338000Y-39370000D03*
%TD*%
D13*
%TO.P,D8,1,K*%
%TO.N,GND*%
X34798000Y-48514000D03*
D14*
%TO.P,D8,2,A*%
%TO.N,Net-(D8-A)*%
X32258000Y-48514000D03*
%TD*%
D13*
%TO.P,D7,1,K*%
%TO.N,GND*%
X34798000Y-43942000D03*
D14*
%TO.P,D7,2,A*%
%TO.N,Net-(D7-A)*%
X32258000Y-43942000D03*
%TD*%
D13*
%TO.P,D11,1,K*%
%TO.N,GND*%
X34798000Y-62230000D03*
D14*
%TO.P,D11,2,A*%
%TO.N,Net-(D11-A)*%
X32258000Y-62230000D03*
%TD*%
D13*
%TO.P,D6,1,K*%
%TO.N,GND*%
X34798000Y-39370000D03*
D14*
%TO.P,D6,2,A*%
%TO.N,Net-(D6-A)*%
X32258000Y-39370000D03*
%TD*%
D15*
%TO.P,R20,1*%
%TO.N,Net-(D12-A)*%
X30226000Y-65901500D03*
%TO.P,R20,2*%
%TO.N,/PD0*%
X30226000Y-67726500D03*
%TD*%
D13*
%TO.P,D12,1,K*%
%TO.N,GND*%
X34786100Y-66814000D03*
D14*
%TO.P,D12,2,A*%
%TO.N,Net-(D12-A)*%
X32246100Y-66814000D03*
%TD*%
D19*
%TO.N,+3V3*%
X50907100Y-47402700D03*
X52545800Y-52305000D03*
D20*
%TO.N,GND*%
X58502136Y-48514000D03*
D19*
%TO.N,Net-(R2-Pad2)*%
X58526200Y-63931800D03*
%TO.N,/PC0*%
X52392400Y-45864000D03*
%TO.N,/PC3*%
X45311800Y-49421200D03*
%TO.N,/PC5*%
X45296700Y-50273000D03*
%TO.N,/PC6*%
X45290200Y-51124800D03*
%TO.N,/PC7*%
X42355400Y-50838200D03*
%TO.N,/PD7*%
X41334500Y-47022300D03*
%TO.N,/PD6*%
X47250400Y-52081500D03*
%TO.N,/PD5*%
X51029400Y-53654900D03*
%TO.N,/PD4*%
X48391700Y-53682000D03*
%TO.N,/PD3*%
X42418700Y-55223400D03*
%TO.N,/PD2*%
X42755900Y-54338700D03*
%TO.N,/PD0*%
X48431100Y-50055200D03*
%TD*%
D21*
%TO.N,+3V3*%
X52545800Y-52305000D02*
X51199993Y-50959193D01*
X50907100Y-50252086D02*
X50907100Y-47402700D01*
X51199993Y-50959193D02*
G75*
G02*
X50907110Y-50252086I707107J707093D01*
G01*
%TO.N,GND*%
X39526000Y-53086000D02*
X39740000Y-53300000D01*
X44311500Y-65174000D02*
X44311500Y-66272286D01*
X59397107Y-49408971D02*
X58502136Y-48514000D01*
X43273786Y-67310000D02*
X35282100Y-67310000D01*
X34798000Y-53086000D02*
X39526000Y-53086000D01*
X35282100Y-67310000D02*
X34786100Y-66814000D01*
X58712893Y-67017107D02*
X59397107Y-66332893D01*
X44018607Y-66979393D02*
X43980893Y-67017107D01*
X43273786Y-67310000D02*
X58005786Y-67310000D01*
X59690000Y-65625786D02*
X59690000Y-50116078D01*
X43980893Y-67017107D02*
G75*
G02*
X43273786Y-67309990I-707093J707107D01*
G01*
X59690000Y-65625786D02*
G75*
G02*
X59397114Y-66332900I-1000000J-14D01*
G01*
X44018607Y-66979393D02*
G75*
G03*
X44311490Y-66272286I-707107J707093D01*
G01*
X59690000Y-50116078D02*
G75*
G03*
X59397096Y-49408982I-1000000J-22D01*
G01*
X58712893Y-67017107D02*
G75*
G02*
X58005786Y-67309990I-707093J707107D01*
G01*
D22*
%TO.N,Net-(R2-Pad2)*%
X58526200Y-53000414D02*
X58526200Y-63931800D01*
X54240000Y-48300000D02*
X58233307Y-52293307D01*
X58233307Y-52293307D02*
G75*
G02*
X58526190Y-53000414I-707107J-707093D01*
G01*
%TO.N,Net-(D1-A)*%
X59905107Y-41617107D02*
X57658000Y-39370000D01*
X60198000Y-42672000D02*
X60198000Y-42324214D01*
X59905107Y-41617107D02*
G75*
G02*
X60197990Y-42324214I-707107J-707093D01*
G01*
%TO.N,Net-(D2-A)*%
X55118000Y-42672000D02*
X55118000Y-42319214D01*
X54825107Y-41612107D02*
X52583000Y-39370000D01*
X55118000Y-42319214D02*
G75*
G03*
X54825114Y-41612100I-1000000J14D01*
G01*
%TO.N,Net-(D3-A)*%
X47498000Y-39370000D02*
X49745107Y-41617107D01*
X50038000Y-42324214D02*
X50038000Y-42672000D01*
X49745107Y-41617107D02*
G75*
G02*
X50037990Y-42324214I-707107J-707093D01*
G01*
%TO.N,Net-(D4-A)*%
X44704000Y-42672000D02*
X42710893Y-40678893D01*
X42418000Y-39971786D02*
G75*
G03*
X42710886Y-40678900I1000000J-14D01*
G01*
%TO.N,Net-(D5-A)*%
X39624000Y-42418000D02*
X37630893Y-40424893D01*
X37338000Y-39717786D02*
G75*
G03*
X37630886Y-40424900I1000000J-14D01*
G01*
%TO.N,Net-(D6-A)*%
X30857507Y-39077107D02*
X30237900Y-38457500D01*
X31564614Y-39370000D02*
G75*
G02*
X30857500Y-39077114I-14J1000000D01*
G01*
%TO.N,Net-(D7-A)*%
X30857507Y-43649107D02*
X30237900Y-43029500D01*
X31564614Y-43942000D02*
G75*
G02*
X30857500Y-43649114I-14J1000000D01*
G01*
%TO.N,Net-(D8-A)*%
X30744507Y-48221107D02*
X30124900Y-47601500D01*
X32258000Y-48514000D02*
X31451614Y-48514000D01*
X30744507Y-48221107D02*
G75*
G03*
X31451614Y-48513990I707093J707107D01*
G01*
%TO.N,Net-(D9-A)*%
X30857507Y-52793107D02*
X30237900Y-52173500D01*
X30857507Y-52793107D02*
G75*
G03*
X31564614Y-53085990I707093J707107D01*
G01*
%TO.N,Net-(D10-A)*%
X30857507Y-57365107D02*
X30237900Y-56745500D01*
X30857507Y-57365107D02*
G75*
G03*
X31564614Y-57657990I707093J707107D01*
G01*
%TO.N,Net-(D11-A)*%
X30857507Y-61937107D02*
X30237900Y-61317500D01*
X31564614Y-62230000D02*
G75*
G02*
X30857500Y-61937114I-14J1000000D01*
G01*
%TO.N,Net-(D12-A)*%
X30845607Y-66521107D02*
X30226000Y-65901500D01*
X30845607Y-66521107D02*
G75*
G03*
X31552714Y-66813990I707093J707107D01*
G01*
%TO.N,/PC0*%
X58373000Y-42672000D02*
X55473893Y-45571107D01*
X54766786Y-45864000D02*
X52392400Y-45864000D01*
X55473893Y-45571107D02*
G75*
G02*
X54766786Y-45863990I-707093J707107D01*
G01*
%TO.N,/PC3*%
X46129586Y-49421200D02*
X45311800Y-49421200D01*
X53293000Y-42672000D02*
X46836693Y-49128307D01*
X46836693Y-49128307D02*
G75*
G02*
X46129586Y-49421190I-707093J707107D01*
G01*
%TO.N,/PC5*%
X45135800Y-50273000D02*
X44633832Y-49729164D01*
X48963907Y-43422907D02*
X48213000Y-42672000D01*
X45372214Y-48514000D02*
X46220850Y-48514000D01*
X49256800Y-45511186D02*
X49256800Y-44130014D01*
X44450000Y-49276000D02*
X44665107Y-48806893D01*
X45296700Y-50273000D02*
X45135800Y-50273000D01*
X46984524Y-48197676D02*
X48963907Y-46218293D01*
X48963907Y-46218293D02*
G75*
G03*
X49256790Y-45511186I-707107J707093D01*
G01*
X44633833Y-49729164D02*
G75*
G02*
X44450039Y-49258964I509467J470164D01*
G01*
X44665107Y-48806893D02*
G75*
G02*
X45372214Y-48514010I707093J-707107D01*
G01*
X46220850Y-48514000D02*
G75*
G03*
X46984499Y-48197651I-50J1080000D01*
G01*
X49256800Y-44130014D02*
G75*
G03*
X48963914Y-43422900I-1000000J14D01*
G01*
%TO.N,/PC6*%
X45142100Y-51124800D02*
X45290200Y-51124800D01*
X42879000Y-42672000D02*
X42879000Y-48447486D01*
X43171893Y-49154593D02*
X45142100Y-51124800D01*
X43171893Y-49154593D02*
G75*
G02*
X42879010Y-48447486I707107J707093D01*
G01*
%TO.N,/PC7*%
X41656000Y-45974000D02*
X41744007Y-46062007D01*
X42329793Y-50812593D02*
X42355400Y-50838200D01*
X42036900Y-46769114D02*
X42036900Y-50105486D01*
X37799000Y-42418000D02*
X41656000Y-45974000D01*
X41744007Y-46062007D02*
G75*
G02*
X42036890Y-46769114I-707107J-707093D01*
G01*
X42036900Y-50105486D02*
G75*
G03*
X42329786Y-50812600I1000000J-14D01*
G01*
%TO.N,/PD7*%
X40960400Y-47022300D02*
X41334500Y-47022300D01*
X30237900Y-40282500D02*
X31536607Y-41581207D01*
X36105093Y-42166993D02*
X40960400Y-47022300D01*
X32243714Y-41874100D02*
X35397986Y-41874100D01*
X36105093Y-42166993D02*
G75*
G03*
X35397986Y-41874110I-707093J-707107D01*
G01*
X32243714Y-41874100D02*
G75*
G02*
X31536600Y-41581214I-14J1000000D01*
G01*
%TO.N,/PD6*%
X36021286Y-46712900D02*
X32510514Y-46712900D01*
X31803407Y-46420007D02*
X30237900Y-44854500D01*
X47250400Y-52081500D02*
X42218314Y-52081500D01*
X41511207Y-51788607D02*
X36728393Y-47005793D01*
X32510514Y-46712900D02*
G75*
G02*
X31803400Y-46420014I-14J1000000D01*
G01*
X36728393Y-47005793D02*
G75*
G03*
X36021286Y-46712910I-707093J-707107D01*
G01*
X42218314Y-52081500D02*
G75*
G02*
X41511200Y-51788614I-14J1000000D01*
G01*
%TO.N,/PD5*%
X51029400Y-53654900D02*
X50597393Y-53222893D01*
X49890286Y-52930000D02*
X41875914Y-52930000D01*
X41168807Y-52637107D02*
X40110993Y-51579293D01*
X39403886Y-51286400D02*
X32399014Y-51286400D01*
X31691907Y-50993507D02*
X30124900Y-49426500D01*
X32399014Y-51286400D02*
G75*
G02*
X31691900Y-50993514I-14J1000000D01*
G01*
X41168807Y-52637107D02*
G75*
G03*
X41875914Y-52929990I707093J707107D01*
G01*
X50597393Y-53222893D02*
G75*
G03*
X49890286Y-52930010I-707093J-707107D01*
G01*
X40110993Y-51579293D02*
G75*
G03*
X39403886Y-51286410I-707093J-707107D01*
G01*
%TO.N,/PD4*%
X48391700Y-53682000D02*
X48341200Y-53631500D01*
X48341200Y-53631500D02*
X42269414Y-53631500D01*
X41562307Y-53924393D02*
X41258893Y-54227807D01*
X40551786Y-54520700D02*
X31174314Y-54520700D01*
X31174314Y-54520700D02*
G75*
G02*
X30467200Y-54227814I-14J1000000D01*
G01*
X41258893Y-54227807D02*
G75*
G02*
X40551786Y-54520690I-707093J707107D01*
G01*
X42269414Y-53631500D02*
G75*
G03*
X41562300Y-53924386I-14J-1000000D01*
G01*
%TO.N,/PD3*%
X42418700Y-55223400D02*
X38959493Y-58682607D01*
X38252386Y-58975500D02*
X31057114Y-58975500D01*
X38959493Y-58682607D02*
G75*
G02*
X38252386Y-58975490I-707093J707107D01*
G01*
X30350007Y-58682607D02*
G75*
G03*
X31057114Y-58975490I707093J707107D01*
G01*
%TO.N,/PD2*%
X42869307Y-54452107D02*
X42755900Y-54338700D01*
X31057514Y-63547900D02*
X35440486Y-63547900D01*
X36147593Y-63255007D02*
X42869307Y-56533293D01*
X43162200Y-55826186D02*
X43162200Y-55159214D01*
X42869307Y-56533293D02*
G75*
G03*
X43162190Y-55826186I-707107J707093D01*
G01*
X35440486Y-63547900D02*
G75*
G03*
X36147600Y-63255014I14J1000000D01*
G01*
X31057514Y-63547900D02*
G75*
G02*
X30350400Y-63255014I-14J1000000D01*
G01*
X43162200Y-55159214D02*
G75*
G03*
X42869314Y-54452100I-1000000J14D01*
G01*
%TO.N,/PD0*%
X50835657Y-58674000D02*
X42926000Y-58674000D01*
X51523107Y-58458893D02*
X51252471Y-58582992D01*
X51816000Y-53848000D02*
X51816000Y-57751786D01*
X36826897Y-64265103D02*
X36614893Y-64477107D01*
X36833131Y-64258924D02*
X36826897Y-64265103D01*
X29171107Y-65062893D02*
X29047008Y-65333529D01*
X48431100Y-50055200D02*
X51523107Y-53140893D01*
X29248893Y-66749393D02*
X30226000Y-67726500D01*
X28956000Y-65750343D02*
X28956000Y-66042286D01*
X35907786Y-64770000D02*
X29878196Y-64770000D01*
X42218893Y-58966893D02*
X36833131Y-64258924D01*
X51816000Y-57751786D02*
G75*
G02*
X51523114Y-58458900I-1000000J-14D01*
G01*
X29878196Y-64770000D02*
G75*
G03*
X29171100Y-65062886I4J-1000000D01*
G01*
X29047008Y-65333529D02*
G75*
G03*
X28956018Y-65750343I908992J-416771D01*
G01*
X28956000Y-66042286D02*
G75*
G03*
X29248886Y-66749400I1000000J-14D01*
G01*
X42926000Y-58674000D02*
G75*
G03*
X42218893Y-58966893I0J-1000000D01*
G01*
X36614893Y-64477107D02*
G75*
G02*
X35907786Y-64769990I-707093J707107D01*
G01*
X51523107Y-53140893D02*
G75*
G02*
X51816000Y-53848000I-707107J-707107D01*
G01*
X50835657Y-58674000D02*
G75*
G03*
X51252478Y-58583008I43J1000000D01*
G01*
%TD*%
%TA.AperFunction,Conductor*%
%TO.N,/PD2*%
G36*
X30705817Y-62836475D02*
G01*
X30706161Y-62837010D01*
X30792637Y-62979721D01*
X30792642Y-62979728D01*
X30792647Y-62979736D01*
X30827626Y-63030119D01*
X30885531Y-63113524D01*
X30941266Y-63182101D01*
X30978421Y-63227818D01*
X31071308Y-63322609D01*
X31159863Y-63394388D01*
X31164132Y-63402258D01*
X31164196Y-63403476D01*
X31164196Y-63682718D01*
X31160769Y-63690991D01*
X31152496Y-63694418D01*
X31149516Y-63694032D01*
X30964604Y-63645321D01*
X30764990Y-63612239D01*
X30764997Y-63612239D01*
X30565397Y-63598659D01*
X30365794Y-63604579D01*
X30365783Y-63604580D01*
X30181463Y-63628055D01*
X30172823Y-63625701D01*
X30168379Y-63617927D01*
X30168405Y-63614775D01*
X30236162Y-63147583D01*
X30240741Y-63139889D01*
X30241118Y-63139619D01*
X30689558Y-62833410D01*
X30698322Y-62831575D01*
X30705817Y-62836475D01*
G37*
%TD.AperFunction*%
%TD*%
%TA.AperFunction,Conductor*%
%TO.N,/PD6*%
G36*
X47140104Y-51815133D02*
G01*
X47140168Y-51815281D01*
X47249515Y-52076989D01*
X47249542Y-52085944D01*
X47249515Y-52086011D01*
X47140168Y-52347718D01*
X47133816Y-52354030D01*
X47124861Y-52354003D01*
X47124713Y-52353939D01*
X47020238Y-52308584D01*
X46936950Y-52272445D01*
X46936933Y-52272439D01*
X46862803Y-52248622D01*
X46862794Y-52248619D01*
X46774928Y-52235512D01*
X46774913Y-52235510D01*
X46661723Y-52231864D01*
X46653565Y-52228172D01*
X46650400Y-52220170D01*
X46650400Y-51942829D01*
X46653827Y-51934556D01*
X46661722Y-51931135D01*
X46774920Y-51927488D01*
X46852680Y-51915887D01*
X46862794Y-51914379D01*
X46862794Y-51914378D01*
X46862800Y-51914378D01*
X46936939Y-51890558D01*
X46965553Y-51878141D01*
X47020238Y-51854414D01*
X47124713Y-51809060D01*
X47133666Y-51808909D01*
X47140104Y-51815133D01*
G37*
%TD.AperFunction*%
%TD*%
%TA.AperFunction,Conductor*%
%TO.N,/PD3*%
G36*
X42152445Y-55113074D02*
G01*
X42352493Y-55195217D01*
X42414884Y-55220836D01*
X42421236Y-55227148D01*
X42421263Y-55227215D01*
X42528999Y-55489590D01*
X42528972Y-55498545D01*
X42522620Y-55504857D01*
X42522470Y-55504917D01*
X42416523Y-55546721D01*
X42416523Y-55546722D01*
X42374294Y-55563393D01*
X42332064Y-55580065D01*
X42332053Y-55580070D01*
X42262802Y-55615642D01*
X42262797Y-55615646D01*
X42191394Y-55668510D01*
X42191381Y-55668521D01*
X42108765Y-55745980D01*
X42100386Y-55749139D01*
X42092490Y-55745718D01*
X41896380Y-55549608D01*
X41892953Y-55541335D01*
X41896117Y-55533334D01*
X41973582Y-55450711D01*
X42026453Y-55379300D01*
X42062033Y-55310033D01*
X42095376Y-55225575D01*
X42137182Y-55119628D01*
X42143406Y-55113191D01*
X42152359Y-55113040D01*
X42152445Y-55113074D01*
G37*
%TD.AperFunction*%
%TD*%
%TA.AperFunction,Conductor*%
%TO.N,Net-(D10-A)*%
G36*
X30710039Y-56553321D02*
G01*
X30716364Y-56559660D01*
X30716716Y-56560633D01*
X30772654Y-56739462D01*
X30824810Y-56889178D01*
X30832411Y-56910998D01*
X30892157Y-57063007D01*
X30892158Y-57063009D01*
X30951911Y-57195534D01*
X30951915Y-57195543D01*
X31008413Y-57302414D01*
X31009250Y-57311329D01*
X31007797Y-57314382D01*
X30851457Y-57548367D01*
X30844012Y-57553342D01*
X30835302Y-57551643D01*
X30686820Y-57454025D01*
X30686810Y-57454019D01*
X30584501Y-57399369D01*
X30528611Y-57369514D01*
X30528608Y-57369512D01*
X30370411Y-57304509D01*
X30212228Y-57259008D01*
X30212209Y-57259003D01*
X30068076Y-57235311D01*
X30060468Y-57230588D01*
X30058429Y-57221868D01*
X30059017Y-57219661D01*
X30235283Y-56749705D01*
X30241396Y-56743164D01*
X30241711Y-56743027D01*
X30701086Y-56553312D01*
X30710039Y-56553321D01*
G37*
%TD.AperFunction*%
%TD*%
%TA.AperFunction,Conductor*%
%TO.N,Net-(D6-A)*%
G36*
X30710039Y-38265321D02*
G01*
X30716364Y-38271660D01*
X30716716Y-38272633D01*
X30772654Y-38451462D01*
X30824810Y-38601178D01*
X30832411Y-38622998D01*
X30892157Y-38775007D01*
X30892158Y-38775009D01*
X30951911Y-38907534D01*
X30951915Y-38907543D01*
X31008413Y-39014414D01*
X31009250Y-39023329D01*
X31007797Y-39026382D01*
X30851457Y-39260367D01*
X30844012Y-39265342D01*
X30835302Y-39263643D01*
X30686820Y-39166025D01*
X30686810Y-39166019D01*
X30584501Y-39111369D01*
X30528611Y-39081514D01*
X30528608Y-39081512D01*
X30370411Y-39016509D01*
X30212228Y-38971008D01*
X30212209Y-38971003D01*
X30068076Y-38947311D01*
X30060468Y-38942588D01*
X30058429Y-38933868D01*
X30059017Y-38931661D01*
X30235283Y-38461705D01*
X30241396Y-38455164D01*
X30241711Y-38455027D01*
X30701086Y-38265312D01*
X30710039Y-38265321D01*
G37*
%TD.AperFunction*%
%TD*%
%TA.AperFunction,Conductor*%
%TO.N,/PD5*%
G36*
X50719465Y-53132317D02*
G01*
X50802088Y-53209782D01*
X50873498Y-53262653D01*
X50942765Y-53298233D01*
X51027223Y-53331576D01*
X51133171Y-53373382D01*
X51139608Y-53379605D01*
X51139759Y-53388558D01*
X51139699Y-53388708D01*
X51031963Y-53651084D01*
X51025651Y-53657436D01*
X51025584Y-53657463D01*
X50763208Y-53765199D01*
X50754253Y-53765172D01*
X50747941Y-53758820D01*
X50747932Y-53758798D01*
X50706076Y-53652723D01*
X50672733Y-53568265D01*
X50637153Y-53498998D01*
X50584282Y-53427588D01*
X50506817Y-53344965D01*
X50503659Y-53336587D01*
X50507079Y-53328692D01*
X50703192Y-53132579D01*
X50711464Y-53129153D01*
X50719465Y-53132317D01*
G37*
%TD.AperFunction*%
%TD*%
%TA.AperFunction,Conductor*%
%TO.N,/PD7*%
G36*
X30710592Y-40090405D02*
G01*
X30716912Y-40096748D01*
X30717083Y-40097188D01*
X30788370Y-40292133D01*
X30863855Y-40479053D01*
X30939320Y-40646429D01*
X30939350Y-40646490D01*
X31014805Y-40794348D01*
X31014819Y-40794372D01*
X31085699Y-40914951D01*
X31086938Y-40923820D01*
X31083886Y-40929153D01*
X30884995Y-41128044D01*
X30876722Y-41131471D01*
X30870149Y-41129450D01*
X30713254Y-41022908D01*
X30548350Y-40930430D01*
X30383451Y-40857454D01*
X30383446Y-40857452D01*
X30218552Y-40803977D01*
X30067057Y-40772762D01*
X30059645Y-40767736D01*
X30057959Y-40758942D01*
X30058466Y-40757186D01*
X30100083Y-40646490D01*
X30235403Y-40286552D01*
X30241521Y-40280016D01*
X30241854Y-40279872D01*
X30701638Y-40090389D01*
X30710592Y-40090405D01*
G37*
%TD.AperFunction*%
%TD*%
%TA.AperFunction,Conductor*%
%TO.N,Net-(R2-Pad2)*%
G36*
X58673144Y-63335227D02*
G01*
X58676565Y-63343123D01*
X58680210Y-63456313D01*
X58680212Y-63456328D01*
X58693319Y-63544194D01*
X58693322Y-63544203D01*
X58717139Y-63618333D01*
X58717145Y-63618350D01*
X58753283Y-63701636D01*
X58798639Y-63806113D01*
X58798790Y-63815066D01*
X58792566Y-63821504D01*
X58792418Y-63821568D01*
X58530711Y-63930915D01*
X58521756Y-63930942D01*
X58521689Y-63930915D01*
X58259981Y-63821568D01*
X58253669Y-63815216D01*
X58253696Y-63806261D01*
X58253760Y-63806113D01*
X58299115Y-63701636D01*
X58335253Y-63618350D01*
X58335258Y-63618339D01*
X58359078Y-63544200D01*
X58372188Y-63456320D01*
X58375835Y-63343122D01*
X58379527Y-63334965D01*
X58387529Y-63331800D01*
X58664871Y-63331800D01*
X58673144Y-63335227D01*
G37*
%TD.AperFunction*%
%TD*%
%TA.AperFunction,Conductor*%
%TO.N,Net-(D12-A)*%
G36*
X32240903Y-65918532D02*
G01*
X32245884Y-65925974D01*
X32246111Y-65928257D01*
X32246803Y-66809848D01*
X32243383Y-66818122D01*
X32243373Y-66818133D01*
X32243367Y-66818139D01*
X31617901Y-67442216D01*
X31609624Y-67445634D01*
X31601440Y-67442282D01*
X31339892Y-67185465D01*
X31339878Y-67185452D01*
X31339867Y-67185441D01*
X31144326Y-67001541D01*
X31144324Y-67001540D01*
X31144276Y-67001494D01*
X30973642Y-66844743D01*
X30973541Y-66844650D01*
X30778075Y-66660822D01*
X30777894Y-66660647D01*
X30516599Y-66404079D01*
X30513096Y-66395838D01*
X30516448Y-66387534D01*
X30713756Y-66190225D01*
X30722028Y-66186799D01*
X30728184Y-66188549D01*
X30730895Y-66190226D01*
X31014975Y-66365987D01*
X31270920Y-66325403D01*
X31531950Y-66166790D01*
X31532291Y-66166593D01*
X31840926Y-65995515D01*
X31844295Y-65994279D01*
X32232119Y-65916793D01*
X32240903Y-65918532D01*
G37*
%TD.AperFunction*%
%TD*%
%TA.AperFunction,Conductor*%
%TO.N,Net-(D11-A)*%
G36*
X30710039Y-61125321D02*
G01*
X30716364Y-61131660D01*
X30716716Y-61132633D01*
X30772654Y-61311462D01*
X30824810Y-61461178D01*
X30832411Y-61482998D01*
X30892157Y-61635007D01*
X30892158Y-61635009D01*
X30951911Y-61767534D01*
X30951915Y-61767543D01*
X31008413Y-61874414D01*
X31009250Y-61883329D01*
X31007797Y-61886382D01*
X30851457Y-62120367D01*
X30844012Y-62125342D01*
X30835302Y-62123643D01*
X30686820Y-62026025D01*
X30686810Y-62026019D01*
X30584501Y-61971369D01*
X30528611Y-61941514D01*
X30528608Y-61941512D01*
X30370411Y-61876509D01*
X30212228Y-61831008D01*
X30212209Y-61831003D01*
X30068076Y-61807311D01*
X30060468Y-61802588D01*
X30058429Y-61793868D01*
X30059017Y-61791661D01*
X30235283Y-61321705D01*
X30241396Y-61315164D01*
X30241711Y-61315027D01*
X30701086Y-61125312D01*
X30710039Y-61125321D01*
G37*
%TD.AperFunction*%
%TD*%
%TA.AperFunction,Conductor*%
%TO.N,Net-(D4-A)*%
G36*
X44071758Y-41825093D02*
G01*
X44231147Y-41934091D01*
X44398548Y-42029068D01*
X44565948Y-42104545D01*
X44733349Y-42160522D01*
X44887103Y-42194026D01*
X44894456Y-42199135D01*
X44896043Y-42207948D01*
X44895428Y-42209915D01*
X44706645Y-42668003D01*
X44700325Y-42674346D01*
X44699945Y-42674497D01*
X44227627Y-42852067D01*
X44218677Y-42851770D01*
X44212558Y-42845232D01*
X44212494Y-42845058D01*
X44207253Y-42830416D01*
X44143522Y-42652350D01*
X44070545Y-42467949D01*
X43997568Y-42303048D01*
X43997567Y-42303045D01*
X43924593Y-42157650D01*
X43924580Y-42157627D01*
X43856124Y-42039526D01*
X43854939Y-42030650D01*
X43857971Y-42025388D01*
X44056882Y-41826477D01*
X44065154Y-41823051D01*
X44071758Y-41825093D01*
G37*
%TD.AperFunction*%
%TD*%
%TA.AperFunction,Conductor*%
%TO.N,/PD0*%
G36*
X48706248Y-49944926D02*
G01*
X48712560Y-49951278D01*
X48712619Y-49951425D01*
X48754418Y-50057275D01*
X48754420Y-50057280D01*
X48787819Y-50141643D01*
X48823486Y-50210806D01*
X48876442Y-50282089D01*
X48876444Y-50282091D01*
X48876447Y-50282095D01*
X48876448Y-50282097D01*
X48953950Y-50364554D01*
X48957119Y-50372929D01*
X48953707Y-50380832D01*
X48757797Y-50577143D01*
X48749527Y-50580578D01*
X48741523Y-50577423D01*
X48658766Y-50500027D01*
X48658765Y-50500026D01*
X48640005Y-50486186D01*
X48587241Y-50447262D01*
X48585916Y-50446584D01*
X48517896Y-50411790D01*
X48517882Y-50411784D01*
X48517880Y-50411783D01*
X48433349Y-50378512D01*
X48433345Y-50378508D01*
X48433345Y-50378511D01*
X48327334Y-50336716D01*
X48320894Y-50330493D01*
X48320740Y-50321540D01*
X48320802Y-50321387D01*
X48336939Y-50282089D01*
X48428536Y-50059015D01*
X48434846Y-50052665D01*
X48697295Y-49944899D01*
X48706248Y-49944926D01*
G37*
%TD.AperFunction*%
%TD*%
%TA.AperFunction,Conductor*%
%TO.N,/PC0*%
G36*
X52517938Y-45591496D02*
G01*
X52518086Y-45591560D01*
X52622561Y-45636914D01*
X52705848Y-45673053D01*
X52705860Y-45673058D01*
X52779999Y-45696878D01*
X52780002Y-45696878D01*
X52780004Y-45696879D01*
X52804498Y-45700532D01*
X52867879Y-45709988D01*
X52981077Y-45713635D01*
X52989235Y-45717327D01*
X52992400Y-45725329D01*
X52992400Y-46002670D01*
X52988973Y-46010943D01*
X52981077Y-46014364D01*
X52867885Y-46018010D01*
X52867870Y-46018012D01*
X52780004Y-46031119D01*
X52779995Y-46031122D01*
X52705865Y-46054939D01*
X52705848Y-46054945D01*
X52622561Y-46091084D01*
X52518086Y-46136439D01*
X52509133Y-46136590D01*
X52502695Y-46130366D01*
X52502646Y-46130254D01*
X52393283Y-45868509D01*
X52393257Y-45859556D01*
X52393262Y-45859542D01*
X52502632Y-45597779D01*
X52508983Y-45591469D01*
X52517938Y-45591496D01*
G37*
%TD.AperFunction*%
%TD*%
%TA.AperFunction,Conductor*%
%TO.N,Net-(D6-A)*%
G36*
X32252803Y-38474532D02*
G01*
X32257784Y-38481974D01*
X32258011Y-38484257D01*
X32258703Y-39365848D01*
X32255283Y-39374122D01*
X32255273Y-39374133D01*
X32255267Y-39374139D01*
X31629801Y-39998216D01*
X31621524Y-40001634D01*
X31613340Y-39998282D01*
X31351792Y-39741465D01*
X31351778Y-39741452D01*
X31351767Y-39741441D01*
X31156227Y-39557542D01*
X31156225Y-39557541D01*
X31156177Y-39557495D01*
X30985543Y-39400744D01*
X30985442Y-39400651D01*
X30789976Y-39216822D01*
X30789795Y-39216647D01*
X30528500Y-38960080D01*
X30524997Y-38951839D01*
X30528349Y-38943535D01*
X30725657Y-38746226D01*
X30733929Y-38742800D01*
X30740085Y-38744550D01*
X30742796Y-38746227D01*
X31026875Y-38921988D01*
X31282820Y-38881403D01*
X31543851Y-38722790D01*
X31544192Y-38722593D01*
X31852826Y-38551515D01*
X31856195Y-38550279D01*
X32244019Y-38472793D01*
X32252803Y-38474532D01*
G37*
%TD.AperFunction*%
%TD*%
%TA.AperFunction,Conductor*%
%TO.N,/PC6*%
G36*
X42885718Y-42675714D02*
G01*
X43338543Y-42993456D01*
X43343347Y-43001012D01*
X43341400Y-43009752D01*
X43341189Y-43010044D01*
X43284535Y-43085709D01*
X43220643Y-43190547D01*
X43220642Y-43190548D01*
X43156778Y-43314832D01*
X43156777Y-43314835D01*
X43156772Y-43314845D01*
X43156768Y-43314854D01*
X43093145Y-43458088D01*
X43092880Y-43458686D01*
X43092874Y-43458700D01*
X43031909Y-43614562D01*
X43025704Y-43621018D01*
X43021013Y-43622000D01*
X42736987Y-43622000D01*
X42728714Y-43618573D01*
X42726091Y-43614562D01*
X42665124Y-43458700D01*
X42665123Y-43458699D01*
X42665115Y-43458677D01*
X42601231Y-43314854D01*
X42601220Y-43314832D01*
X42537356Y-43190548D01*
X42537355Y-43190547D01*
X42537353Y-43190543D01*
X42537347Y-43190532D01*
X42473463Y-43085709D01*
X42416809Y-43010044D01*
X42414595Y-43001369D01*
X42419164Y-42993667D01*
X42419435Y-42993470D01*
X42872280Y-42675714D01*
X42881020Y-42673768D01*
X42885718Y-42675714D01*
G37*
%TD.AperFunction*%
%TD*%
%TA.AperFunction,Conductor*%
%TO.N,Net-(D7-A)*%
G36*
X30710039Y-42837321D02*
G01*
X30716364Y-42843660D01*
X30716716Y-42844633D01*
X30772654Y-43023462D01*
X30824810Y-43173178D01*
X30832411Y-43194998D01*
X30892157Y-43347007D01*
X30892158Y-43347009D01*
X30951911Y-43479534D01*
X30951915Y-43479543D01*
X31008413Y-43586414D01*
X31009250Y-43595329D01*
X31007797Y-43598382D01*
X30851457Y-43832367D01*
X30844012Y-43837342D01*
X30835302Y-43835643D01*
X30686820Y-43738025D01*
X30686810Y-43738019D01*
X30584501Y-43683369D01*
X30528611Y-43653514D01*
X30528608Y-43653512D01*
X30370411Y-43588509D01*
X30212228Y-43543008D01*
X30212209Y-43543003D01*
X30068076Y-43519311D01*
X30060468Y-43514588D01*
X30058429Y-43505868D01*
X30059017Y-43503661D01*
X30235283Y-43033705D01*
X30241396Y-43027164D01*
X30241711Y-43027027D01*
X30701086Y-42837312D01*
X30710039Y-42837321D01*
G37*
%TD.AperFunction*%
%TD*%
%TA.AperFunction,Conductor*%
%TO.N,Net-(D8-A)*%
G36*
X31918040Y-47693391D02*
G01*
X31918520Y-47694409D01*
X32255707Y-48507473D01*
X32255711Y-48516428D01*
X32253164Y-48520237D01*
X31629619Y-49142397D01*
X31621342Y-49145815D01*
X31613347Y-49142645D01*
X31350177Y-48895602D01*
X31350173Y-48895599D01*
X31144134Y-48729226D01*
X30960095Y-48592478D01*
X30959723Y-48592190D01*
X30754210Y-48426242D01*
X30753552Y-48425669D01*
X30620063Y-48300361D01*
X30491241Y-48179434D01*
X30487556Y-48171275D01*
X30490720Y-48162897D01*
X30490944Y-48162665D01*
X30687726Y-47965883D01*
X30695998Y-47962457D01*
X30702574Y-47964481D01*
X30935619Y-48122943D01*
X31148283Y-48121498D01*
X31362324Y-48010447D01*
X31607005Y-47845870D01*
X31608026Y-47845256D01*
X31902215Y-47688563D01*
X31911126Y-47687700D01*
X31918040Y-47693391D01*
G37*
%TD.AperFunction*%
%TD*%
%TA.AperFunction,Conductor*%
%TO.N,Net-(D2-A)*%
G36*
X53411607Y-39030483D02*
G01*
X53417933Y-39036822D01*
X53418292Y-39037816D01*
X53534670Y-39412366D01*
X53535088Y-39414245D01*
X53576364Y-39714587D01*
X53612273Y-39973147D01*
X53716250Y-40232637D01*
X53919458Y-40484230D01*
X53955247Y-40528541D01*
X53957779Y-40537130D01*
X53954418Y-40544165D01*
X53757165Y-40741418D01*
X53748892Y-40744845D01*
X53741541Y-40742247D01*
X53496294Y-40544165D01*
X53445637Y-40503250D01*
X53186147Y-40399273D01*
X53186144Y-40399272D01*
X53186143Y-40399272D01*
X52979264Y-40370541D01*
X52927587Y-40363364D01*
X52927579Y-40363362D01*
X52627245Y-40322088D01*
X52625366Y-40321670D01*
X52250816Y-40205292D01*
X52243933Y-40199565D01*
X52243115Y-40190647D01*
X52243469Y-40189665D01*
X52580438Y-39373783D01*
X52586761Y-39367447D01*
X53402654Y-39030474D01*
X53411607Y-39030483D01*
G37*
%TD.AperFunction*%
%TD*%
%TA.AperFunction,Conductor*%
%TO.N,/PC3*%
G36*
X52816592Y-42491918D02*
G01*
X53288946Y-42669503D01*
X53295483Y-42675621D01*
X53295645Y-42675996D01*
X53484428Y-43134084D01*
X53484412Y-43143039D01*
X53478069Y-43149359D01*
X53476102Y-43149974D01*
X53435179Y-43158891D01*
X53322349Y-43183477D01*
X53322346Y-43183478D01*
X53322345Y-43183478D01*
X53154951Y-43239453D01*
X53154943Y-43239456D01*
X52987555Y-43314927D01*
X52987545Y-43314932D01*
X52820158Y-43409901D01*
X52820135Y-43409915D01*
X52660758Y-43518906D01*
X52651995Y-43520747D01*
X52645881Y-43517521D01*
X52446973Y-43318613D01*
X52443546Y-43310340D01*
X52445124Y-43304473D01*
X52513580Y-43186371D01*
X52513593Y-43186348D01*
X52586567Y-43040953D01*
X52586573Y-43040939D01*
X52659546Y-42876047D01*
X52732522Y-42691649D01*
X52801494Y-42498939D01*
X52807509Y-42492306D01*
X52816453Y-42491867D01*
X52816592Y-42491918D01*
G37*
%TD.AperFunction*%
%TD*%
%TA.AperFunction,Conductor*%
%TO.N,Net-(D1-A)*%
G36*
X60150413Y-41684254D02*
G01*
X60150768Y-41684820D01*
X60235848Y-41829662D01*
X60327202Y-41965686D01*
X60418556Y-42082210D01*
X60418559Y-42082213D01*
X60418562Y-42082217D01*
X60509908Y-42179232D01*
X60509911Y-42179235D01*
X60591740Y-42248675D01*
X60595831Y-42256641D01*
X60593091Y-42265166D01*
X60592577Y-42265733D01*
X60205498Y-42665657D01*
X60197282Y-42669218D01*
X60190378Y-42667103D01*
X59736737Y-42349327D01*
X59731927Y-42341773D01*
X59732919Y-42334646D01*
X59761873Y-42274830D01*
X59795168Y-42190158D01*
X59828463Y-42089597D01*
X59861758Y-41973147D01*
X59893954Y-41845175D01*
X59898797Y-41838305D01*
X60134187Y-41681025D01*
X60142968Y-41679279D01*
X60150413Y-41684254D01*
G37*
%TD.AperFunction*%
%TD*%
%TA.AperFunction,Conductor*%
%TO.N,Net-(D9-A)*%
G36*
X30710039Y-51981321D02*
G01*
X30716364Y-51987660D01*
X30716716Y-51988633D01*
X30772654Y-52167462D01*
X30824810Y-52317178D01*
X30832411Y-52338998D01*
X30892157Y-52491007D01*
X30892158Y-52491009D01*
X30951911Y-52623534D01*
X30951915Y-52623543D01*
X31008413Y-52730414D01*
X31009250Y-52739329D01*
X31007797Y-52742382D01*
X30851457Y-52976367D01*
X30844012Y-52981342D01*
X30835302Y-52979643D01*
X30686820Y-52882025D01*
X30686810Y-52882019D01*
X30584501Y-52827369D01*
X30528611Y-52797514D01*
X30528608Y-52797512D01*
X30370411Y-52732509D01*
X30212228Y-52687008D01*
X30212209Y-52687003D01*
X30068076Y-52663311D01*
X30060468Y-52658588D01*
X30058429Y-52649868D01*
X30059017Y-52647661D01*
X30235283Y-52177705D01*
X30241396Y-52171164D01*
X30241711Y-52171027D01*
X30701086Y-51981312D01*
X30710039Y-51981321D01*
G37*
%TD.AperFunction*%
%TD*%
%TA.AperFunction,Conductor*%
%TO.N,Net-(D3-A)*%
G36*
X48326607Y-39030483D02*
G01*
X48332933Y-39036822D01*
X48333292Y-39037816D01*
X48449670Y-39412366D01*
X48450088Y-39414245D01*
X48491364Y-39714587D01*
X48527273Y-39973147D01*
X48631250Y-40232637D01*
X48834458Y-40484230D01*
X48870247Y-40528541D01*
X48872779Y-40537130D01*
X48869418Y-40544165D01*
X48672165Y-40741418D01*
X48663892Y-40744845D01*
X48656541Y-40742247D01*
X48411294Y-40544165D01*
X48360637Y-40503250D01*
X48101147Y-40399273D01*
X48101144Y-40399272D01*
X48101143Y-40399272D01*
X47894264Y-40370541D01*
X47842587Y-40363364D01*
X47842579Y-40363362D01*
X47542245Y-40322088D01*
X47540366Y-40321670D01*
X47165816Y-40205292D01*
X47158933Y-40199565D01*
X47158115Y-40190647D01*
X47158469Y-40189665D01*
X47495438Y-39373783D01*
X47501761Y-39367447D01*
X48317654Y-39030474D01*
X48326607Y-39030483D01*
G37*
%TD.AperFunction*%
%TD*%
%TA.AperFunction,Conductor*%
%TO.N,Net-(D9-A)*%
G36*
X32252803Y-52190532D02*
G01*
X32257784Y-52197974D01*
X32258011Y-52200257D01*
X32258703Y-53081848D01*
X32255283Y-53090122D01*
X32255273Y-53090133D01*
X32255267Y-53090139D01*
X31629801Y-53714216D01*
X31621524Y-53717634D01*
X31613340Y-53714282D01*
X31351792Y-53457465D01*
X31351778Y-53457452D01*
X31351767Y-53457441D01*
X31156226Y-53273541D01*
X31156224Y-53273540D01*
X31156176Y-53273494D01*
X30985542Y-53116743D01*
X30985441Y-53116650D01*
X30789975Y-52932822D01*
X30789794Y-52932647D01*
X30528499Y-52676079D01*
X30524996Y-52667838D01*
X30528348Y-52659534D01*
X30725656Y-52462225D01*
X30733928Y-52458799D01*
X30740084Y-52460549D01*
X30742795Y-52462226D01*
X31026875Y-52637987D01*
X31282820Y-52597403D01*
X31543850Y-52438790D01*
X31544191Y-52438593D01*
X31852826Y-52267515D01*
X31856195Y-52266279D01*
X32244019Y-52188793D01*
X32252803Y-52190532D01*
G37*
%TD.AperFunction*%
%TD*%
%TA.AperFunction,Conductor*%
%TO.N,/PD2*%
G36*
X43031116Y-54228398D02*
G01*
X43037427Y-54234751D01*
X43037459Y-54234828D01*
X43086317Y-54356361D01*
X43086421Y-54356630D01*
X43121846Y-54451447D01*
X43121900Y-54451595D01*
X43151435Y-54534002D01*
X43186937Y-54629029D01*
X43235926Y-54750889D01*
X43235832Y-54759843D01*
X43229547Y-54766062D01*
X42972489Y-54872536D01*
X42963534Y-54872536D01*
X42957923Y-54867651D01*
X42898485Y-54766419D01*
X42898482Y-54766415D01*
X42825660Y-54709937D01*
X42825659Y-54709936D01*
X42743398Y-54675982D01*
X42743004Y-54675811D01*
X42650942Y-54633793D01*
X42648617Y-54632384D01*
X42554197Y-54558944D01*
X42549770Y-54551160D01*
X42552145Y-54542526D01*
X42553076Y-54541466D01*
X42753854Y-54339450D01*
X42757705Y-54336879D01*
X43022162Y-54228368D01*
X43031116Y-54228398D01*
G37*
%TD.AperFunction*%
%TD*%
%TA.AperFunction,Conductor*%
%TO.N,/PC7*%
G36*
X42209609Y-50303145D02*
G01*
X42214127Y-50308937D01*
X42249537Y-50408073D01*
X42307451Y-50467629D01*
X42307453Y-50467630D01*
X42307454Y-50467631D01*
X42381590Y-50505500D01*
X42468217Y-50548667D01*
X42470209Y-50549924D01*
X42557152Y-50617947D01*
X42561556Y-50625744D01*
X42559157Y-50634372D01*
X42558238Y-50635412D01*
X42357262Y-50837503D01*
X42353408Y-50840077D01*
X42089192Y-50948508D01*
X42080237Y-50948479D01*
X42073926Y-50942126D01*
X42073873Y-50941994D01*
X42022005Y-50811081D01*
X42021777Y-50810455D01*
X42016782Y-50795398D01*
X41987797Y-50708014D01*
X41987544Y-50707131D01*
X41965497Y-50616285D01*
X41965380Y-50615747D01*
X41945085Y-50508612D01*
X41918657Y-50369342D01*
X41920481Y-50360578D01*
X41927868Y-50355690D01*
X42200829Y-50301398D01*
X42209609Y-50303145D01*
G37*
%TD.AperFunction*%
%TD*%
%TA.AperFunction,Conductor*%
%TO.N,Net-(D5-A)*%
G36*
X38224586Y-39369989D02*
G01*
X38232856Y-39373422D01*
X38236276Y-39381698D01*
X38236166Y-39383288D01*
X38186829Y-39740882D01*
X38186253Y-39743231D01*
X38082786Y-40031846D01*
X38001552Y-40277549D01*
X38018164Y-40517405D01*
X38202213Y-40781642D01*
X38204129Y-40790389D01*
X38200885Y-40796602D01*
X38003513Y-40993974D01*
X37995240Y-40997401D01*
X37987429Y-40994412D01*
X37694854Y-40732046D01*
X37457053Y-40568310D01*
X37457036Y-40568300D01*
X37240583Y-40440106D01*
X37239910Y-40439676D01*
X37003044Y-40276583D01*
X37001868Y-40275657D01*
X36710791Y-40014634D01*
X36706919Y-40006559D01*
X36709891Y-39998112D01*
X36710289Y-39997690D01*
X37333862Y-39372730D01*
X37342127Y-39369296D01*
X38224586Y-39369989D01*
G37*
%TD.AperFunction*%
%TD*%
%TA.AperFunction,Conductor*%
%TO.N,Net-(D4-A)*%
G36*
X43303946Y-39369988D02*
G01*
X43312215Y-39373421D01*
X43315635Y-39381697D01*
X43315439Y-39383820D01*
X43245310Y-39762288D01*
X43244241Y-39765448D01*
X43090693Y-40068236D01*
X43090551Y-40068506D01*
X42951823Y-40325233D01*
X42951822Y-40325238D01*
X42925502Y-40576600D01*
X42925503Y-40576605D01*
X43103569Y-40856555D01*
X43105118Y-40865375D01*
X43101970Y-40871107D01*
X42904675Y-41068402D01*
X42896402Y-41071829D01*
X42888200Y-41068473D01*
X42623173Y-40807949D01*
X42425312Y-40621167D01*
X42252797Y-40461863D01*
X42252702Y-40461775D01*
X42054987Y-40275130D01*
X42054817Y-40274966D01*
X41790010Y-40014659D01*
X41786512Y-40006415D01*
X41789867Y-39998114D01*
X42413862Y-39372730D01*
X42422127Y-39369296D01*
X43303946Y-39369988D01*
G37*
%TD.AperFunction*%
%TD*%
%TA.AperFunction,Conductor*%
%TO.N,/PC7*%
G36*
X38284500Y-42225879D02*
G01*
X38290761Y-42232280D01*
X38290799Y-42232376D01*
X38364425Y-42420629D01*
X38364430Y-42420641D01*
X38364431Y-42420643D01*
X38442362Y-42600402D01*
X38520293Y-42760661D01*
X38520294Y-42760662D01*
X38598216Y-42901407D01*
X38671266Y-43015072D01*
X38672856Y-43023885D01*
X38670025Y-43029329D01*
X38479426Y-43236062D01*
X38471299Y-43239821D01*
X38464556Y-43238010D01*
X38300940Y-43134199D01*
X38300936Y-43134196D01*
X38129065Y-43044647D01*
X38129055Y-43044643D01*
X37957188Y-42974596D01*
X37876975Y-42951005D01*
X37785319Y-42924048D01*
X37785314Y-42924047D01*
X37785317Y-42924047D01*
X37627413Y-42895522D01*
X37619881Y-42890679D01*
X37617979Y-42881928D01*
X37618584Y-42879779D01*
X37796428Y-42422050D01*
X37802617Y-42415582D01*
X37802911Y-42415458D01*
X38275546Y-42225780D01*
X38284500Y-42225879D01*
G37*
%TD.AperFunction*%
%TD*%
%TA.AperFunction,Conductor*%
%TO.N,Net-(D10-A)*%
G36*
X32252803Y-56762532D02*
G01*
X32257784Y-56769974D01*
X32258011Y-56772257D01*
X32258703Y-57653848D01*
X32255283Y-57662122D01*
X32255273Y-57662133D01*
X32255267Y-57662139D01*
X31629801Y-58286216D01*
X31621524Y-58289634D01*
X31613340Y-58286282D01*
X31351792Y-58029465D01*
X31351778Y-58029452D01*
X31351767Y-58029441D01*
X31156226Y-57845541D01*
X31156224Y-57845540D01*
X31156176Y-57845494D01*
X30985542Y-57688743D01*
X30985441Y-57688650D01*
X30789975Y-57504822D01*
X30789794Y-57504647D01*
X30528499Y-57248079D01*
X30524996Y-57239838D01*
X30528348Y-57231534D01*
X30725656Y-57034225D01*
X30733928Y-57030799D01*
X30740084Y-57032549D01*
X30742795Y-57034226D01*
X31026875Y-57209987D01*
X31282820Y-57169403D01*
X31543850Y-57010790D01*
X31544191Y-57010593D01*
X31852826Y-56839515D01*
X31856195Y-56838279D01*
X32244019Y-56760793D01*
X32252803Y-56762532D01*
G37*
%TD.AperFunction*%
%TD*%
%TA.AperFunction,Conductor*%
%TO.N,Net-(R2-Pad2)*%
G36*
X55037149Y-47973513D02*
G01*
X55043474Y-47979852D01*
X55043823Y-47980816D01*
X55159698Y-48350163D01*
X55279414Y-48692744D01*
X55399115Y-48996286D01*
X55518818Y-49260835D01*
X55634472Y-49478755D01*
X55635323Y-49487669D01*
X55632410Y-49492513D01*
X55433104Y-49691819D01*
X55424831Y-49695246D01*
X55418446Y-49693350D01*
X55122848Y-49500825D01*
X55122834Y-49500817D01*
X54819298Y-49342120D01*
X54819283Y-49342113D01*
X54515747Y-49222415D01*
X54515731Y-49222409D01*
X54212195Y-49141708D01*
X54212185Y-49141705D01*
X54212182Y-49141705D01*
X54212179Y-49141704D01*
X54212172Y-49141703D01*
X53923630Y-49102061D01*
X53915900Y-49097540D01*
X53913631Y-49088878D01*
X53914406Y-49086010D01*
X54237438Y-48303783D01*
X54243759Y-48297448D01*
X55028195Y-47973504D01*
X55037149Y-47973513D01*
G37*
%TD.AperFunction*%
%TD*%
%TA.AperFunction,Conductor*%
%TO.N,Net-(D5-A)*%
G36*
X38991758Y-41571093D02*
G01*
X39151147Y-41680091D01*
X39318548Y-41775068D01*
X39485948Y-41850545D01*
X39653349Y-41906522D01*
X39807103Y-41940026D01*
X39814456Y-41945135D01*
X39816043Y-41953948D01*
X39815428Y-41955915D01*
X39626645Y-42414003D01*
X39620325Y-42420346D01*
X39619945Y-42420497D01*
X39147627Y-42598067D01*
X39138677Y-42597770D01*
X39132558Y-42591232D01*
X39132494Y-42591058D01*
X39127253Y-42576416D01*
X39063522Y-42398350D01*
X38990545Y-42213949D01*
X38917568Y-42049048D01*
X38917567Y-42049045D01*
X38844593Y-41903650D01*
X38844580Y-41903627D01*
X38776124Y-41785526D01*
X38774939Y-41776650D01*
X38777971Y-41771388D01*
X38976882Y-41572477D01*
X38985154Y-41569051D01*
X38991758Y-41571093D01*
G37*
%TD.AperFunction*%
%TD*%
%TA.AperFunction,Conductor*%
%TO.N,Net-(D11-A)*%
G36*
X32252803Y-61334532D02*
G01*
X32257784Y-61341974D01*
X32258011Y-61344257D01*
X32258703Y-62225848D01*
X32255283Y-62234122D01*
X32255273Y-62234133D01*
X32255267Y-62234139D01*
X31629801Y-62858216D01*
X31621524Y-62861634D01*
X31613340Y-62858282D01*
X31351792Y-62601465D01*
X31351778Y-62601452D01*
X31351767Y-62601441D01*
X31156227Y-62417542D01*
X31156225Y-62417541D01*
X31156177Y-62417495D01*
X30985543Y-62260744D01*
X30985442Y-62260651D01*
X30789976Y-62076822D01*
X30789795Y-62076647D01*
X30528500Y-61820080D01*
X30524997Y-61811839D01*
X30528349Y-61803535D01*
X30725657Y-61606226D01*
X30733929Y-61602800D01*
X30740085Y-61604550D01*
X30742796Y-61606227D01*
X31026875Y-61781988D01*
X31282820Y-61741403D01*
X31543851Y-61582790D01*
X31544192Y-61582593D01*
X31852826Y-61411515D01*
X31856195Y-61410279D01*
X32244019Y-61332793D01*
X32252803Y-61334532D01*
G37*
%TD.AperFunction*%
%TD*%
%TA.AperFunction,Conductor*%
%TO.N,Net-(D1-A)*%
G36*
X58486607Y-39030483D02*
G01*
X58492933Y-39036822D01*
X58493292Y-39037816D01*
X58609670Y-39412366D01*
X58610088Y-39414245D01*
X58651364Y-39714587D01*
X58687273Y-39973147D01*
X58791250Y-40232637D01*
X58994458Y-40484230D01*
X59030247Y-40528541D01*
X59032779Y-40537130D01*
X59029418Y-40544165D01*
X58832165Y-40741418D01*
X58823892Y-40744845D01*
X58816541Y-40742247D01*
X58571294Y-40544165D01*
X58520637Y-40503250D01*
X58261147Y-40399273D01*
X58261144Y-40399272D01*
X58261143Y-40399272D01*
X58054264Y-40370541D01*
X58002587Y-40363364D01*
X58002579Y-40363362D01*
X57702245Y-40322088D01*
X57700366Y-40321670D01*
X57325816Y-40205292D01*
X57318933Y-40199565D01*
X57318115Y-40190647D01*
X57318469Y-40189665D01*
X57655438Y-39373783D01*
X57661761Y-39367447D01*
X58477654Y-39030474D01*
X58486607Y-39030483D01*
G37*
%TD.AperFunction*%
%TD*%
%TA.AperFunction,Conductor*%
%TO.N,/PD4*%
G36*
X48387715Y-53385714D02*
G01*
X48391712Y-53393727D01*
X48391741Y-53394507D01*
X48392692Y-53679632D01*
X48391788Y-53684182D01*
X48281662Y-53947752D01*
X48275310Y-53954064D01*
X48266355Y-53954037D01*
X48265764Y-53953770D01*
X48162338Y-53903653D01*
X48161376Y-53903130D01*
X48135798Y-53887628D01*
X48081458Y-53854694D01*
X48011081Y-53816083D01*
X48011074Y-53816080D01*
X47926067Y-53790658D01*
X47926057Y-53790657D01*
X47812585Y-53782298D01*
X47804586Y-53778273D01*
X47801745Y-53770630D01*
X47801745Y-53492407D01*
X47805172Y-53484134D01*
X47812624Y-53480736D01*
X47886145Y-53475579D01*
X47949247Y-53471153D01*
X47949251Y-53471152D01*
X47949253Y-53471152D01*
X48052485Y-53446476D01*
X48140489Y-53417180D01*
X48141445Y-53416907D01*
X48243259Y-53392570D01*
X48245144Y-53392281D01*
X48379222Y-53382875D01*
X48387715Y-53385714D01*
G37*
%TD.AperFunction*%
%TD*%
%TA.AperFunction,Conductor*%
%TO.N,/PD3*%
G36*
X30705793Y-58264336D02*
G01*
X30706137Y-58264870D01*
X30792642Y-58407550D01*
X30885543Y-58541281D01*
X30978447Y-58655516D01*
X30978452Y-58655522D01*
X31071359Y-58750261D01*
X31071362Y-58750264D01*
X31071364Y-58750266D01*
X31102411Y-58775408D01*
X31159930Y-58821989D01*
X31164202Y-58829856D01*
X31164266Y-58831079D01*
X31164266Y-59110324D01*
X31160839Y-59118597D01*
X31152566Y-59122024D01*
X31149590Y-59121639D01*
X30964679Y-59073000D01*
X30964675Y-59072999D01*
X30765095Y-59040000D01*
X30765083Y-59039999D01*
X30565514Y-59026500D01*
X30565504Y-59026500D01*
X30565501Y-59026500D01*
X30421354Y-59030833D01*
X30365908Y-59032500D01*
X30181592Y-59056049D01*
X30172951Y-59053698D01*
X30168503Y-59045926D01*
X30168530Y-59042767D01*
X30168931Y-59039999D01*
X30236163Y-58575584D01*
X30240740Y-58567889D01*
X30241111Y-58567622D01*
X30689534Y-58261274D01*
X30698296Y-58259438D01*
X30705793Y-58264336D01*
G37*
%TD.AperFunction*%
%TD*%
%TA.AperFunction,Conductor*%
%TO.N,/PD0*%
G36*
X29593749Y-66879548D02*
G01*
X29642943Y-66912954D01*
X29750645Y-66986090D01*
X29750647Y-66986091D01*
X29915548Y-67078568D01*
X30080449Y-67151545D01*
X30162899Y-67178283D01*
X30245346Y-67205021D01*
X30245348Y-67205021D01*
X30245350Y-67205022D01*
X30396842Y-67236237D01*
X30404254Y-67241263D01*
X30405940Y-67250057D01*
X30405433Y-67251813D01*
X30228497Y-67722445D01*
X30222378Y-67728983D01*
X30222003Y-67729145D01*
X29762262Y-67918609D01*
X29753307Y-67918593D01*
X29746987Y-67912250D01*
X29746816Y-67911810D01*
X29675528Y-67716864D01*
X29600043Y-67529944D01*
X29524578Y-67362569D01*
X29524548Y-67362508D01*
X29449093Y-67214650D01*
X29449079Y-67214626D01*
X29378200Y-67094048D01*
X29376961Y-67085179D01*
X29380011Y-67079848D01*
X29578905Y-66880954D01*
X29587177Y-66877528D01*
X29593749Y-66879548D01*
G37*
%TD.AperFunction*%
%TD*%
%TA.AperFunction,Conductor*%
%TO.N,/PD7*%
G36*
X41329682Y-46726549D02*
G01*
X41334383Y-46734170D01*
X41334532Y-46736007D01*
X41335201Y-47020645D01*
X41334297Y-47025183D01*
X41224177Y-47288737D01*
X41217825Y-47295049D01*
X41208939Y-47295050D01*
X41076226Y-47240589D01*
X41075886Y-47240443D01*
X40974831Y-47195185D01*
X40973620Y-47194556D01*
X40892385Y-47146109D01*
X40890991Y-47145133D01*
X40806321Y-47076202D01*
X40805591Y-47075555D01*
X40703182Y-46976899D01*
X40699602Y-46968693D01*
X40702874Y-46960358D01*
X40702976Y-46960254D01*
X40899953Y-46763276D01*
X40908225Y-46759850D01*
X40914709Y-46761811D01*
X40988881Y-46811203D01*
X41061053Y-46810004D01*
X41134928Y-46778033D01*
X41134929Y-46778035D01*
X41134940Y-46778027D01*
X41220848Y-46740996D01*
X41223610Y-46740190D01*
X41320968Y-46724483D01*
X41329682Y-46726549D01*
G37*
%TD.AperFunction*%
%TD*%
%TA.AperFunction,Conductor*%
%TO.N,GND*%
G36*
X39736394Y-52503511D02*
G01*
X39740011Y-52511702D01*
X39740014Y-52511958D01*
X39740997Y-53297658D01*
X39740101Y-53302163D01*
X39438587Y-54027710D01*
X39432248Y-54034035D01*
X39423293Y-54034024D01*
X39422733Y-54033774D01*
X39131974Y-53894411D01*
X39131108Y-53893950D01*
X38919458Y-53769604D01*
X38733429Y-53672158D01*
X38733422Y-53672155D01*
X38636153Y-53644618D01*
X38509197Y-53608677D01*
X38509194Y-53608676D01*
X38509191Y-53608676D01*
X38193457Y-53586756D01*
X38185441Y-53582764D01*
X38182567Y-53575084D01*
X38182567Y-52597432D01*
X38185994Y-52589159D01*
X38193994Y-52585735D01*
X38569151Y-52577056D01*
X38843089Y-52555728D01*
X39079346Y-52530286D01*
X39079608Y-52530261D01*
X39353119Y-52508966D01*
X39353713Y-52508937D01*
X39728044Y-52500276D01*
X39736394Y-52503511D01*
G37*
%TD.AperFunction*%
%TD*%
%TA.AperFunction,Conductor*%
%TO.N,/PC5*%
G36*
X44938503Y-49836255D02*
G01*
X45024319Y-49909275D01*
X45106734Y-49940797D01*
X45132560Y-49943354D01*
X45135874Y-49944185D01*
X45168091Y-49957530D01*
X45311800Y-49976450D01*
X45333179Y-49973635D01*
X45338033Y-49974018D01*
X45399093Y-49992150D01*
X45406049Y-49997790D01*
X45406979Y-50006696D01*
X45406586Y-50007811D01*
X45298277Y-50271544D01*
X45295700Y-50275400D01*
X45093106Y-50476650D01*
X45084821Y-50480049D01*
X45076559Y-50476595D01*
X45076330Y-50476357D01*
X44985345Y-50379440D01*
X44984761Y-50378766D01*
X44920656Y-50298699D01*
X44920282Y-50298206D01*
X44868180Y-50225561D01*
X44805628Y-50142942D01*
X44805618Y-50142930D01*
X44717601Y-50041582D01*
X44714765Y-50033090D01*
X44718499Y-50025316D01*
X44922989Y-49836569D01*
X44931391Y-49833476D01*
X44938503Y-49836255D01*
G37*
%TD.AperFunction*%
%TD*%
%TA.AperFunction,Conductor*%
%TO.N,Net-(D8-A)*%
G36*
X30597039Y-47409321D02*
G01*
X30603364Y-47415660D01*
X30603716Y-47416633D01*
X30659654Y-47595462D01*
X30711810Y-47745178D01*
X30719411Y-47766998D01*
X30779157Y-47919007D01*
X30779158Y-47919009D01*
X30838911Y-48051534D01*
X30838915Y-48051543D01*
X30895413Y-48158414D01*
X30896250Y-48167329D01*
X30894797Y-48170382D01*
X30738457Y-48404367D01*
X30731012Y-48409342D01*
X30722302Y-48407643D01*
X30573820Y-48310025D01*
X30573810Y-48310019D01*
X30471501Y-48255369D01*
X30415611Y-48225514D01*
X30415608Y-48225512D01*
X30257411Y-48160509D01*
X30099228Y-48115008D01*
X30099209Y-48115003D01*
X29955076Y-48091311D01*
X29947468Y-48086588D01*
X29945429Y-48077868D01*
X29946017Y-48075661D01*
X30122283Y-47605705D01*
X30128396Y-47599164D01*
X30128711Y-47599027D01*
X30588086Y-47409312D01*
X30597039Y-47409321D01*
G37*
%TD.AperFunction*%
%TD*%
%TA.AperFunction,Conductor*%
%TO.N,/PC3*%
G36*
X45437338Y-49148696D02*
G01*
X45437486Y-49148760D01*
X45541961Y-49194114D01*
X45625248Y-49230253D01*
X45625260Y-49230258D01*
X45699399Y-49254078D01*
X45699402Y-49254078D01*
X45699404Y-49254079D01*
X45723898Y-49257732D01*
X45787279Y-49267188D01*
X45900477Y-49270835D01*
X45908635Y-49274527D01*
X45911800Y-49282529D01*
X45911800Y-49559870D01*
X45908373Y-49568143D01*
X45900477Y-49571564D01*
X45787285Y-49575210D01*
X45787270Y-49575212D01*
X45699404Y-49588319D01*
X45699395Y-49588322D01*
X45625265Y-49612139D01*
X45625248Y-49612145D01*
X45541961Y-49648284D01*
X45437486Y-49693639D01*
X45428533Y-49693790D01*
X45422095Y-49687566D01*
X45422046Y-49687454D01*
X45312683Y-49425709D01*
X45312657Y-49416756D01*
X45312662Y-49416742D01*
X45422032Y-49154979D01*
X45428383Y-49148669D01*
X45437338Y-49148696D01*
G37*
%TD.AperFunction*%
%TD*%
%TA.AperFunction,Conductor*%
%TO.N,/PC6*%
G36*
X44920848Y-50689709D02*
G01*
X45011329Y-50761277D01*
X45011332Y-50761278D01*
X45096202Y-50791786D01*
X45113097Y-50793366D01*
X45116470Y-50794202D01*
X45152991Y-50809330D01*
X45296700Y-50828250D01*
X45324471Y-50824593D01*
X45329339Y-50824984D01*
X45392633Y-50843932D01*
X45399574Y-50849586D01*
X45400484Y-50858495D01*
X45400099Y-50859583D01*
X45291806Y-51123316D01*
X45289229Y-51127173D01*
X45086616Y-51328440D01*
X45078331Y-51331839D01*
X45070069Y-51328385D01*
X45069831Y-51328137D01*
X44979960Y-51232185D01*
X44979369Y-51231503D01*
X44915764Y-51152129D01*
X44915467Y-51151743D01*
X44863003Y-51080372D01*
X44798963Y-51000455D01*
X44798957Y-51000448D01*
X44708289Y-50903645D01*
X44705134Y-50895264D01*
X44708554Y-50887375D01*
X44905318Y-50690611D01*
X44913590Y-50687185D01*
X44920848Y-50689709D01*
G37*
%TD.AperFunction*%
%TD*%
%TA.AperFunction,Conductor*%
%TO.N,GND*%
G36*
X35706055Y-52191728D02*
G01*
X35877984Y-52313988D01*
X35878006Y-52314003D01*
X35956545Y-52359381D01*
X36057999Y-52417999D01*
X36238000Y-52498000D01*
X36418000Y-52554000D01*
X36418001Y-52554000D01*
X36418004Y-52554001D01*
X36588348Y-52584284D01*
X36595893Y-52589106D01*
X36598000Y-52595803D01*
X36598000Y-53576196D01*
X36594573Y-53584469D01*
X36588348Y-53587715D01*
X36418004Y-53617997D01*
X36298000Y-53655332D01*
X36238000Y-53673999D01*
X36237998Y-53674000D01*
X36057997Y-53754001D01*
X36057996Y-53754002D01*
X35878006Y-53857995D01*
X35877984Y-53858010D01*
X35706055Y-53980271D01*
X35697327Y-53982273D01*
X35691006Y-53979014D01*
X35297555Y-53586000D01*
X34805286Y-53094277D01*
X34801856Y-53086006D01*
X34805278Y-53077731D01*
X34805287Y-53077722D01*
X35691008Y-52192984D01*
X35699281Y-52189563D01*
X35706055Y-52191728D01*
G37*
%TD.AperFunction*%
%TD*%
%TA.AperFunction,Conductor*%
%TO.N,/PD6*%
G36*
X30710592Y-44662405D02*
G01*
X30716912Y-44668748D01*
X30717083Y-44669188D01*
X30788370Y-44864133D01*
X30863855Y-45051053D01*
X30939320Y-45218429D01*
X30939350Y-45218490D01*
X31014805Y-45366348D01*
X31014819Y-45366372D01*
X31085699Y-45486951D01*
X31086938Y-45495820D01*
X31083886Y-45501153D01*
X30884995Y-45700044D01*
X30876722Y-45703471D01*
X30870149Y-45701450D01*
X30713254Y-45594908D01*
X30548350Y-45502430D01*
X30383451Y-45429454D01*
X30383446Y-45429452D01*
X30218552Y-45375977D01*
X30067057Y-45344762D01*
X30059645Y-45339736D01*
X30057959Y-45330942D01*
X30058466Y-45329186D01*
X30100083Y-45218490D01*
X30235403Y-44858552D01*
X30241521Y-44852016D01*
X30241854Y-44851872D01*
X30701638Y-44662389D01*
X30710592Y-44662405D01*
G37*
%TD.AperFunction*%
%TD*%
%TA.AperFunction,Conductor*%
%TO.N,/PD4*%
G36*
X30713434Y-53735778D02*
G01*
X30713806Y-53736472D01*
X30791020Y-53893133D01*
X30873766Y-54041519D01*
X30956513Y-54170405D01*
X30956516Y-54170409D01*
X30956518Y-54170412D01*
X30956523Y-54170419D01*
X31039255Y-54279787D01*
X31118826Y-54366223D01*
X31121916Y-54374370D01*
X31116611Y-54652954D01*
X31113027Y-54661160D01*
X31104690Y-54664429D01*
X31100726Y-54663656D01*
X30918700Y-54593901D01*
X30918690Y-54593897D01*
X30918676Y-54593893D01*
X30918673Y-54593892D01*
X30721093Y-54537674D01*
X30721081Y-54537672D01*
X30523487Y-54500948D01*
X30325870Y-54483723D01*
X30143041Y-54485829D01*
X30134729Y-54482498D01*
X30131207Y-54474265D01*
X30131485Y-54471592D01*
X30235786Y-54003482D01*
X30240929Y-53996156D01*
X30241297Y-53995932D01*
X30697447Y-53731522D01*
X30706321Y-53730338D01*
X30713434Y-53735778D01*
G37*
%TD.AperFunction*%
%TD*%
%TA.AperFunction,Conductor*%
%TO.N,Net-(D3-A)*%
G36*
X49990413Y-41684254D02*
G01*
X49990768Y-41684820D01*
X50075848Y-41829662D01*
X50167202Y-41965686D01*
X50258556Y-42082210D01*
X50258559Y-42082213D01*
X50258562Y-42082217D01*
X50349908Y-42179232D01*
X50349911Y-42179235D01*
X50431740Y-42248675D01*
X50435831Y-42256641D01*
X50433091Y-42265166D01*
X50432577Y-42265733D01*
X50045498Y-42665657D01*
X50037282Y-42669218D01*
X50030378Y-42667103D01*
X49576737Y-42349327D01*
X49571927Y-42341773D01*
X49572919Y-42334646D01*
X49601873Y-42274830D01*
X49635168Y-42190158D01*
X49668463Y-42089597D01*
X49701758Y-41973147D01*
X49733954Y-41845175D01*
X49738797Y-41838305D01*
X49974187Y-41681025D01*
X49982968Y-41679279D01*
X49990413Y-41684254D01*
G37*
%TD.AperFunction*%
%TD*%
%TA.AperFunction,Conductor*%
%TO.N,/PC0*%
G36*
X57896592Y-42491918D02*
G01*
X58368946Y-42669503D01*
X58375483Y-42675621D01*
X58375645Y-42675996D01*
X58564428Y-43134084D01*
X58564412Y-43143039D01*
X58558069Y-43149359D01*
X58556102Y-43149974D01*
X58515179Y-43158891D01*
X58402349Y-43183477D01*
X58402346Y-43183478D01*
X58402345Y-43183478D01*
X58234951Y-43239453D01*
X58234943Y-43239456D01*
X58067555Y-43314927D01*
X58067545Y-43314932D01*
X57900158Y-43409901D01*
X57900135Y-43409915D01*
X57740758Y-43518906D01*
X57731995Y-43520747D01*
X57725881Y-43517521D01*
X57526973Y-43318613D01*
X57523546Y-43310340D01*
X57525124Y-43304473D01*
X57593580Y-43186371D01*
X57593593Y-43186348D01*
X57666567Y-43040953D01*
X57666573Y-43040939D01*
X57739546Y-42876047D01*
X57812522Y-42691649D01*
X57881494Y-42498939D01*
X57887509Y-42492306D01*
X57896453Y-42491867D01*
X57896592Y-42491918D01*
G37*
%TD.AperFunction*%
%TD*%
%TA.AperFunction,Conductor*%
%TO.N,GND*%
G36*
X44316364Y-65175058D02*
G01*
X45112088Y-65513523D01*
X45118357Y-65519913D01*
X45118273Y-65528868D01*
X45118183Y-65529074D01*
X44984472Y-65827382D01*
X44845915Y-66157501D01*
X44707352Y-66508634D01*
X44707341Y-66508662D01*
X44707340Y-66508666D01*
X44568766Y-66880824D01*
X44568761Y-66880839D01*
X44436310Y-67256623D01*
X44430327Y-67263287D01*
X44421386Y-67263769D01*
X44417072Y-67261075D01*
X43719987Y-66575267D01*
X43716681Y-66569019D01*
X43669444Y-66309110D01*
X43621543Y-66066551D01*
X43621539Y-66066531D01*
X43573637Y-65844963D01*
X43525735Y-65644395D01*
X43480629Y-65475308D01*
X43481808Y-65466432D01*
X43488074Y-65461248D01*
X44307928Y-65174781D01*
X44316364Y-65175058D01*
G37*
%TD.AperFunction*%
%TD*%
%TA.AperFunction,Conductor*%
%TO.N,Net-(D7-A)*%
G36*
X32252803Y-43046532D02*
G01*
X32257784Y-43053974D01*
X32258011Y-43056257D01*
X32258703Y-43937848D01*
X32255283Y-43946122D01*
X32255273Y-43946133D01*
X32255267Y-43946139D01*
X31629801Y-44570216D01*
X31621524Y-44573634D01*
X31613340Y-44570282D01*
X31351792Y-44313465D01*
X31351778Y-44313452D01*
X31351767Y-44313441D01*
X31156227Y-44129542D01*
X31156225Y-44129541D01*
X31156177Y-44129495D01*
X30985543Y-43972744D01*
X30985442Y-43972651D01*
X30789976Y-43788822D01*
X30789795Y-43788647D01*
X30528500Y-43532080D01*
X30524997Y-43523839D01*
X30528349Y-43515535D01*
X30725657Y-43318226D01*
X30733929Y-43314800D01*
X30740085Y-43316550D01*
X30742796Y-43318227D01*
X31026875Y-43493988D01*
X31282820Y-43453403D01*
X31543851Y-43294790D01*
X31544192Y-43294593D01*
X31852826Y-43123515D01*
X31856195Y-43122279D01*
X32244019Y-43044793D01*
X32252803Y-43046532D01*
G37*
%TD.AperFunction*%
%TD*%
%TA.AperFunction,Conductor*%
%TO.N,Net-(D12-A)*%
G36*
X30698139Y-65709321D02*
G01*
X30704464Y-65715660D01*
X30704816Y-65716633D01*
X30760754Y-65895462D01*
X30812910Y-66045178D01*
X30820511Y-66066998D01*
X30880257Y-66219007D01*
X30880258Y-66219009D01*
X30940011Y-66351534D01*
X30940015Y-66351543D01*
X30996513Y-66458414D01*
X30997350Y-66467329D01*
X30995897Y-66470382D01*
X30839557Y-66704367D01*
X30832112Y-66709342D01*
X30823402Y-66707643D01*
X30674920Y-66610025D01*
X30674910Y-66610019D01*
X30572601Y-66555369D01*
X30516711Y-66525514D01*
X30516708Y-66525512D01*
X30358511Y-66460509D01*
X30200328Y-66415008D01*
X30200309Y-66415003D01*
X30056176Y-66391311D01*
X30048568Y-66386588D01*
X30046529Y-66377868D01*
X30047117Y-66375661D01*
X30223383Y-65905705D01*
X30229496Y-65899164D01*
X30229811Y-65899027D01*
X30689186Y-65709312D01*
X30698139Y-65709321D01*
G37*
%TD.AperFunction*%
%TD*%
%TA.AperFunction,Conductor*%
%TO.N,/PD5*%
G36*
X30597592Y-49234405D02*
G01*
X30603912Y-49240748D01*
X30604083Y-49241188D01*
X30675370Y-49436133D01*
X30750855Y-49623053D01*
X30826320Y-49790429D01*
X30826350Y-49790490D01*
X30901805Y-49938348D01*
X30901819Y-49938372D01*
X30972699Y-50058951D01*
X30973938Y-50067820D01*
X30970886Y-50073153D01*
X30771995Y-50272044D01*
X30763722Y-50275471D01*
X30757149Y-50273450D01*
X30600254Y-50166908D01*
X30435350Y-50074430D01*
X30270451Y-50001454D01*
X30270446Y-50001452D01*
X30105552Y-49947977D01*
X29954057Y-49916762D01*
X29946645Y-49911736D01*
X29944959Y-49902942D01*
X29945466Y-49901186D01*
X29987083Y-49790490D01*
X30122403Y-49430552D01*
X30128521Y-49424016D01*
X30128854Y-49423872D01*
X30588638Y-49234389D01*
X30597592Y-49234405D01*
G37*
%TD.AperFunction*%
%TD*%
%TA.AperFunction,Conductor*%
%TO.N,/PC5*%
G36*
X48698322Y-42492228D02*
G01*
X48704441Y-42498766D01*
X48704505Y-42498940D01*
X48753325Y-42635343D01*
X48765550Y-42669502D01*
X48773483Y-42691665D01*
X48846452Y-42876047D01*
X48919425Y-43040939D01*
X48919431Y-43040953D01*
X48992405Y-43186348D01*
X48992418Y-43186371D01*
X49060875Y-43304473D01*
X49062060Y-43313349D01*
X49059026Y-43318613D01*
X48860118Y-43517521D01*
X48851845Y-43520948D01*
X48845241Y-43518906D01*
X48685863Y-43409915D01*
X48685856Y-43409910D01*
X48685852Y-43409908D01*
X48518451Y-43314931D01*
X48518443Y-43314927D01*
X48351055Y-43239456D01*
X48351057Y-43239456D01*
X48351051Y-43239454D01*
X48183650Y-43183477D01*
X48029896Y-43149973D01*
X48022543Y-43144864D01*
X48020956Y-43136051D01*
X48021568Y-43134092D01*
X48210355Y-42675994D01*
X48216674Y-42669653D01*
X48217004Y-42669521D01*
X48689373Y-42491931D01*
X48698322Y-42492228D01*
G37*
%TD.AperFunction*%
%TD*%
%TA.AperFunction,Conductor*%
%TO.N,Net-(D2-A)*%
G36*
X55073206Y-41683490D02*
G01*
X55073581Y-41684089D01*
X55158350Y-41829208D01*
X55249371Y-41965533D01*
X55249377Y-41965541D01*
X55340398Y-42082368D01*
X55340406Y-42082377D01*
X55340411Y-42082383D01*
X55371218Y-42115325D01*
X55431440Y-42179722D01*
X55431442Y-42179723D01*
X55512995Y-42249460D01*
X55517055Y-42257441D01*
X55514283Y-42265956D01*
X55513778Y-42266510D01*
X55125498Y-42665692D01*
X55117273Y-42669233D01*
X55110398Y-42667117D01*
X54656789Y-42349364D01*
X54651979Y-42341810D01*
X54653003Y-42334617D01*
X54682437Y-42274772D01*
X54716295Y-42189993D01*
X54750154Y-42089275D01*
X54784012Y-41972620D01*
X54816762Y-41844367D01*
X54821596Y-41837536D01*
X55056981Y-41680261D01*
X55065761Y-41678515D01*
X55073206Y-41683490D01*
G37*
%TD.AperFunction*%
%TD*%
%TA.AperFunction,Conductor*%
%TO.N,GND*%
G36*
X35693323Y-66136024D02*
G01*
X35866100Y-66312903D01*
X35866110Y-66312912D01*
X35866118Y-66312920D01*
X35866121Y-66312923D01*
X36046087Y-66473166D01*
X36046111Y-66473186D01*
X36226088Y-66609443D01*
X36226092Y-66609447D01*
X36226099Y-66609451D01*
X36226100Y-66609452D01*
X36406100Y-66721726D01*
X36579553Y-66806789D01*
X36585471Y-66813508D01*
X36586100Y-66817293D01*
X36586100Y-67796078D01*
X36582673Y-67804351D01*
X36574400Y-67807778D01*
X36572386Y-67807603D01*
X36201569Y-67742800D01*
X35817028Y-67699599D01*
X35432517Y-67680400D01*
X35432502Y-67680400D01*
X35432499Y-67680400D01*
X35350224Y-67681426D01*
X35047980Y-67685199D01*
X35047948Y-67685200D01*
X34677836Y-67712921D01*
X34669330Y-67710122D01*
X34665295Y-67702128D01*
X34665366Y-67699695D01*
X34784450Y-66818806D01*
X34788954Y-66811068D01*
X35677872Y-66134888D01*
X35686530Y-66132608D01*
X35693323Y-66136024D01*
G37*
%TD.AperFunction*%
%TD*%
M02*
